<svg xmlns="http://www.w3.org/2000/svg" viewBox="0 -0.5 16 16" shape-rendering="crispEdges">
<metadata>Made with Pixels to Svg https://codepen.io/shshaw/pen/XbxvNj</metadata>
<path stroke="#f5ba27" d="M6 4h1M9 4h1M4 6h1M6 6h1M9 6h1M11 6h1M4 9h1M6 9h1M9 9h1M11 9h1M6 11h1M9 11h1" />
<path stroke="#ffec4f" d="M7 4h2M5 5h1M7 5h1M10 5h1M4 7h2M10 7h2M4 8h1M11 8h1M5 10h1M7 10h1" />
<path stroke="#fed639" d="M6 5h1M8 5h2M5 6h1M10 6h1M5 8h1M10 8h1M5 9h1M10 9h1M6 10h1M8 10h3M7 11h2" />
<path stroke="#f19d25" d="M7 6h2M6 7h1M9 7h1M6 8h1M9 8h1M7 9h2" />
<path stroke="#d37d32" d="M7 7h1M8 8h1" />
<path stroke="#bd6a22" d="M8 7h1M7 8h1" />
</svg>