<svg xmlns="http://www.w3.org/2000/svg" viewBox="0 -0.5 16 16" shape-rendering="crispEdges">
<metadata>Made with Pixels to Svg https://codepen.io/shshaw/pen/XbxvNj</metadata>
<path stroke="#ed302c" d="M8 5h1M6 6h1M9 6h1M5 7h1M9 7h1M5 8h4" />
<path stroke="#9b221a" d="M9 5h1M8 6h1M10 7h1M9 8h1" />
<path stroke="#bf2529" d="M7 6h1M10 6h1M6 7h1M8 7h1M6 9h1" />
<path stroke="#742303" d="M7 7h1" />
<path stroke="#204626" d="M7 9h1M5 13h1M6 14h1M8 14h2M7 15h1M9 15h1" />
<path stroke="#265a25" d="M8 9h1M6 13h1M10 13h2M8 15h1" />
<path stroke="#4a8f28" d="M8 10h1M8 11h1M8 12h1" />
<path stroke="#2b702a" d="M8 13h1" />
</svg>