<svg xmlns="http://www.w3.org/2000/svg" viewBox="0 -0.5 16 16" shape-rendering="crispEdges">
<metadata>Made with Pixels to Svg https://codepen.io/shshaw/pen/XbxvNj</metadata>
<path stroke="#ffec4f" d="M7 7h2M6 8h1M9 8h1M5 9h1M7 9h1M10 9h1M6 10h1M9 10h1" />
<path stroke="#fed639" d="M7 8h1M9 9h1M8 10h1" />
<path stroke="#f19d25" d="M8 8h1M6 9h1" />
<path stroke="#bd6a22" d="M8 9h1M7 10h1" />
<path stroke="#177c04" d="M7 11h2M5 12h1M6 13h1M10 13h1M8 14h2M8 15h1" />
<path stroke="#4a8f28" d="M6 12h1M8 12h1M8 13h2M7 15h1" />
<path stroke="#55ab2d" d="M7 12h1M7 13h1M7 14h1" />
</svg>