<svg xmlns="http://www.w3.org/2000/svg" viewBox="0 -0.5 16 16" shape-rendering="crispEdges">
<metadata>Made with Pixels to Svg https://codepen.io/shshaw/pen/XbxvNj</metadata>
<path stroke="#f7f7f7" d="M6 3h1M6 4h2" />
<path stroke="#d6e8e8" d="M8 3h1M8 4h1M7 5h1" />
<path stroke="#9bbdbd" d="M6 5h1M8 5h1M7 6h1" />
<path stroke="#177c04" d="M10 6h1M7 7h1M8 8h1M8 9h1M10 10h1M9 12h1M8 13h1M6 14h1M8 14h1M7 15h1" />
<path stroke="#4a8f28" d="M9 7h1M4 11h1M5 12h1M8 12h1M7 14h1" />
<path stroke="#55ab2d" d="M10 7h1M9 8h2M7 9h1M9 9h1M4 10h2M7 10h1M9 10h1M5 11h1M7 11h1M6 12h1M6 13h1" />
<path stroke="#529a2e" d="M7 8h1M10 9h1M8 10h1M6 11h1M8 11h2M7 12h1M7 13h1" />
</svg>