<svg xmlns="http://www.w3.org/2000/svg" viewBox="0 -0.5 251 269" shape-rendering="crispEdges">
    <path stroke="rgba(191,128,96,0.03137254901960784)" d="M143 14h1M145 14h1M140 15h1M137 16h1M134 17h1M150 17h1M130 18h1M170 29h1M175 32h1M178 34h1M180 35h1M183 37h1M67 231h1M69 232h1M72 234h1M74 235h1M77 237h1M156 239h1M99 250h1M102 252h1" />
    <path stroke="rgba(182,124,102,0.27450980392156865)" d="M144 14h1M141 15h1M146 15h1M104 253h1" />
    <path stroke="rgba(191,128,128,0.01568627450980392)" d="M139 15h1M147 15h1M136 16h1M133 17h1M152 18h1M123 20h1M155 20h1M95 248h1M125 248h1M97 249h1M122 249h1M100 251h1" />
    <path stroke="rgba(181,123,104,0.5294117647058824)" d="M142 15h1M138 16h1M103 252h1" />
    <path stroke="#b57b67" d="M143 15h3M140 16h7M137 17h12M134 18h17M130 19h22M131 20h23M132 21h23M134 22h23M136 23h23M137 24h23M139 25h23M140 26h24M139 27h26M135 28h32M132 29h37M129 30h41M125 31h47M122 32h52M118 33h31M153 33h22M115 34h31M154 34h23M111 35h31M156 35h22M109 36h29M158 36h22M111 37h24M159 37h23M112 38h23M161 38h22M114 39h22M162 39h23M115 40h23M163 40h24M117 41h23M161 41h27M119 42h22M158 42h32M119 43h24M154 43h38M115 44h30M150 44h43M112 45h31M148 45h47M109 46h31M150 46h47M106 47h30M152 47h46M104 48h29M153 48h47M106 49h24M155 49h46M107 50h23M157 50h46M57 51h2M109 51h22M158 51h47M53 52h7M110 52h23M160 52h47M50 53h12M112 53h23M162 53h46M47 54h17M114 54h22M163 54h47M43 55h22M115 55h23M165 55h47M44 56h23M117 56h23M166 56h48M46 57h22M119 57h22M168 57h47M48 58h16M120 58h23M170 58h47M49 59h12M122 59h23M171 59h48M51 60h7M124 60h22M173 60h47M52 61h2M125 61h23M175 61h47M125 62h24M176 62h48M122 63h29M178 63h47M118 64h35M180 64h47M114 65h40M181 65h48M111 66h45M181 66h49M107 67h51M178 67h54M104 68h31M138 68h21M175 68h58M101 69h30M139 69h22M171 69h64M98 70h30M141 70h22M168 70h69M94 71h31M143 71h94M95 72h26M144 72h93M97 73h21M146 73h91M99 74h16M147 74h90M100 75h12M149 75h67M220 75h17M102 76h7M151 76h62M220 76h17M103 77h2M152 77h58M220 77h17M154 78h53M220 78h17M25 79h1M156 79h47M220 79h17M25 80h3M157 80h43M220 80h17M25 81h4M130 81h2M159 81h37M220 81h17M25 82h6M127 82h7M160 82h33M220 82h17M25 83h8M124 83h11M158 83h31M220 83h17M25 84h9M121 84h16M155 84h31M220 84h17M25 85h11M117 85h22M152 85h30M220 85h17M25 86h11M114 86h26M148 86h31M220 86h17M25 87h11M110 87h32M145 87h31M220 87h17M25 88h11M107 88h65M220 88h17M25 89h11M103 89h66M220 89h17M25 90h11M101 90h65M220 90h17M25 91h11M103 91h60M220 91h17M25 92h11M104 92h20M128 92h31M220 92h17M25 93h11M106 93h15M129 93h27M220 93h17M25 94h11M107 94h10M131 94h21M220 94h17M25 95h11M109 95h5M133 95h16M220 95h17M25 96h11M135 96h10M220 96h17M25 97h11M136 97h5M220 97h17M25 98h11M220 98h17M25 99h11M201 99h2M220 99h17M25 100h11M197 100h6M220 100h17M25 101h11M194 101h9M220 101h17M25 102h11M191 102h12M220 102h17M25 103h11M94 103h1M188 103h15M220 103h17M25 104h11M94 104h3M184 104h19M220 104h17M25 105h11M94 105h5M180 105h23M220 105h17M25 106h11M94 106h6M177 106h26M220 106h17M25 107h11M71 107h2M94 107h8M173 107h30M220 107h17M25 108h11M71 108h4M94 108h10M170 108h33M220 108h17M25 109h11M71 109h5M94 109h11M166 109h37M220 109h17M25 110h11M71 110h7M94 110h11M163 110h40M220 110h17M25 111h11M71 111h8M94 111h11M160 111h43M220 111h17M25 112h11M71 112h10M94 112h11M156 112h47M220 112h17M25 113h11M71 113h12M94 113h11M155 113h48M220 113h17M26 114h10M71 114h13M94 114h11M155 114h48M220 114h17M28 115h8M71 115h15M94 115h11M155 115h48M220 115h17M29 116h7M71 116h17M94 116h11M155 116h48M220 116h17M31 117h5M71 117h18M94 117h11M155 117h48M220 117h17M33 118h3M60 118h1M71 118h20M94 118h11M136 118h2M155 118h48M220 118h17M35 119h1M60 119h2M71 119h22M94 119h11M133 119h5M155 119h48M220 119h17M60 120h4M71 120h34M129 120h9M155 120h48M220 120h17M60 121h6M71 121h34M126 121h12M155 121h48M220 121h17M60 122h7M71 122h34M122 122h16M155 122h48M220 122h17M60 123h9M71 123h34M122 123h16M155 123h48M220 123h17M60 124h10M71 124h34M122 124h16M155 124h48M220 124h17M60 125h45M122 125h16M155 125h48M220 125h17M60 126h45M122 126h16M155 126h48M220 126h17M60 127h45M122 127h16M155 127h48M220 127h17M60 128h45M122 128h16M155 128h48M220 128h17M60 129h45M122 129h16M155 129h48M220 129h17M60 130h45M122 130h16M155 130h48M220 130h17M60 131h45M122 131h16M155 131h48M220 131h17M60 132h45M122 132h16M155 132h48M220 132h17M60 133h45M122 133h16M155 133h48M220 133h17M60 134h45M122 134h16M155 134h45M220 134h17M60 135h45M122 135h16M155 135h42M220 135h17M60 136h45M122 136h16M155 136h39M220 136h17M60 137h45M122 137h16M155 137h35M220 137h17M60 138h45M122 138h16M155 138h32M220 138h17M60 139h45M122 139h16M155 139h29M220 139h17M60 140h45M122 140h16M155 140h26M220 140h17M37 141h1M60 141h45M122 141h16M155 141h22M220 141h17M37 142h3M60 142h11M73 142h32M122 142h16M155 142h19M220 142h15M37 143h5M60 143h11M74 143h31M122 143h16M155 143h16M220 143h11M37 144h6M60 144h11M76 144h29M122 144h16M155 144h12M220 144h8M37 145h8M60 145h11M78 145h27M122 145h16M155 145h8M220 145h5M37 146h10M60 146h11M79 146h26M122 146h16M155 146h5M220 146h1M37 147h11M60 147h11M81 147h24M122 147h16M155 147h1M37 148h13M60 148h11M82 148h23M122 148h16M37 149h15M60 149h11M83 149h22M122 149h16M37 150h17M60 150h11M83 150h22M122 150h16M37 151h18M60 151h11M83 151h22M122 151h16M37 152h20M60 152h11M83 152h22M122 152h16M37 153h22M60 153h11M83 153h22M122 153h14M37 154h34M83 154h22M122 154h11M37 155h34M83 155h22M122 155h8M37 156h34M83 156h22M122 156h5M37 157h34M83 157h22M122 157h1M39 158h32M83 158h22M184 158h3M41 159h30M83 159h22M121 159h1M181 159h6M42 160h29M83 160h22M117 160h5M178 160h9M44 161h27M83 161h22M114 161h8M175 161h12M45 162h26M83 162h22M111 162h11M171 162h16M47 163h24M83 163h22M107 163h15M168 163h19M49 164h22M83 164h39M165 164h22M50 165h21M83 165h39M161 165h26M52 166h19M83 166h39M158 166h29M54 167h17M83 167h39M155 167h32M55 168h16M83 168h39M155 168h32M25 169h1M57 169h14M83 169h39M155 169h32M25 170h2M59 170h12M83 170h39M155 170h32M25 171h4M60 171h11M83 171h39M155 171h32M25 172h6M60 172h11M83 172h39M155 172h32M25 173h7M60 173h11M83 173h39M155 173h32M25 174h9M60 174h11M83 174h39M155 174h32M25 175h11M60 175h11M83 175h39M155 175h30M25 176h12M60 176h11M83 176h37M155 176h27M25 177h13M60 177h11M83 177h34M155 177h23M25 178h15M60 178h11M83 178h31M155 178h19M25 179h17M60 179h11M83 179h27M155 179h16M25 180h18M60 180h11M83 180h24M155 180h12M25 181h20M60 181h11M83 181h22M155 181h9M25 182h22M60 182h11M83 182h22M155 182h6M25 183h23M60 183h11M83 183h22M155 183h3M25 184h23M60 184h11M83 184h22M25 185h23M60 185h11M83 185h22M25 186h23M60 186h11M83 186h22M27 187h21M60 187h11M83 187h22M28 188h20M60 188h11M83 188h22M30 189h18M60 189h11M83 189h22M32 190h16M60 190h11M83 190h22M34 191h14M60 191h11M83 191h22M35 192h13M60 192h11M83 192h22M37 193h11M60 193h11M83 193h22M37 194h11M60 194h11M83 194h22M37 195h11M60 195h11M83 195h22M37 196h11M60 196h11M83 196h22M37 197h11M60 197h11M83 197h22M37 198h11M60 198h13M83 198h22M37 199h11M60 199h15M83 199h22M37 200h11M60 200h16M83 200h22M37 201h11M60 201h18M83 201h22M37 202h13M60 202h19M83 202h22M37 203h15M60 203h21M83 203h22M37 204h16M60 204h45M37 205h18M60 205h45M37 206h19M60 206h45M37 207h21M60 207h45M37 208h68M37 209h68M37 210h68M37 211h68M38 212h67M39 213h66M41 214h64M43 215h62M44 216h61M46 217h59M47 218h58M49 219h56M51 220h54M53 221h52M54 222h51M56 223h49M58 224h47M60 225h45M61 226h44M63 227h42M65 228h40M66 229h39M68 230h37M70 231h35M71 232h34M73 233h32M75 234h30M76 235h29M78 236h27M79 237h26M81 238h24M83 239h22M84 240h21M86 241h19M88 242h17M89 243h16M91 244h14M93 245h12M94 246h11M96 247h9M98 248h7M99 249h6M101 250h4M102 251h3M104 252h1" />
    <path stroke="rgba(180,123,103,0.7647058823529411)" d="M139 16h1M147 16h1M136 17h1M133 18h1M100 250h1" />
    <path stroke="rgba(181,124,103,0.2823529411764706)" d="M148 16h1M131 18h1M151 18h1M128 19h1M101 251h1" />
    <path stroke="rgba(181,123,102,0.5372549019607843)" d="M135 17h1M149 17h1M132 18h1M154 20h1M98 249h1" />
    <path stroke="rgba(179,128,102,0.0392156862745098)" d="M127 19h1M153 19h1M124 20h1M121 21h1M117 22h1M158 22h1M185 38h1M59 39h1M56 40h1M188 40h1M46 43h1M193 43h1M210 223h1M207 224h1M57 225h1M59 226h1M200 226h1M64 229h1M131 246h1M94 247h1M128 247h1M124 248h1" />
    <path stroke="rgba(181,125,102,0.5372549019607843)" d="M129 19h1" />
    <path stroke="rgba(181,123,104,0.7725490196078432)" d="M152 19h1M155 21h1M157 22h1M160 24h1M162 25h1M165 27h1M87 242h1M90 244h1M92 245h1M95 247h1M97 248h1" />
    <path stroke="rgba(190,140,114,0.5372549019607843)" d="M125 20h2" />
    <path stroke="#bd8b72" d="M127 20h2M124 21h7M121 22h11M117 23h17M114 24h22M110 25h27M107 26h32M103 27h32M99 28h33M96 29h33M92 30h33M89 31h33M86 32h32M83 33h31M79 34h31M150 34h2M76 35h31M146 35h8M73 36h34M143 36h12M70 37h38M139 37h18M66 38h44M137 38h22M63 39h49M139 39h21M60 40h53M140 40h21M57 41h58M142 41h15M53 42h64M143 42h11M50 43h65M145 43h5M47 44h65M43 45h65M39 46h66M143 46h5M36 47h66M140 47h10M32 48h70M137 48h14M29 49h74M134 49h19M25 50h31M59 50h46M132 50h22M22 51h31M61 51h46M134 51h22M19 52h31M62 52h46M135 52h23M15 53h31M64 53h46M137 53h22M14 54h29M66 54h46M138 54h23M14 55h27M67 55h46M140 55h23M14 56h28M69 56h46M142 56h22M14 57h30M70 57h47M143 57h23M14 58h31M68 58h50M145 58h23M14 59h33M65 59h55M147 59h22M14 60h35M62 60h59M148 60h23M14 61h36M58 61h65M150 61h23M14 62h38M55 62h66M152 62h22M14 63h103M153 63h23M14 64h100M155 64h22M14 65h96M157 65h22M14 66h93M158 66h19M14 67h89M160 67h14M14 68h86M161 68h10M14 69h83M135 69h2M163 69h5M14 70h80M132 70h7M14 71h78M129 71h11M14 72h79M125 72h17M14 73h81M122 73h22M14 74h82M119 74h26M14 75h84M115 75h32M14 76h86M112 76h37M217 76h3M14 77h87M109 77h41M214 77h6M14 78h11M27 78h75M106 78h46M210 78h10M14 79h11M28 79h71M107 79h47M207 79h13M14 80h11M30 80h66M108 80h22M133 80h22M204 80h16M14 81h11M32 81h60M110 81h16M134 81h23M200 81h20M14 82h11M33 82h56M112 82h11M136 82h22M197 82h23M14 83h11M35 83h52M113 83h7M138 83h16M193 83h27M14 84h11M36 84h52M115 84h2M139 84h12M190 84h30M14 85h11M37 85h53M141 85h7M186 85h34M14 86h11M37 86h55M142 86h2M183 86h37M14 87h11M37 87h56M180 87h40M14 88h11M37 88h58M176 88h44M14 89h11M37 89h60M173 89h47M14 90h11M37 90h62M170 90h50M14 91h11M37 91h63M166 91h54M14 92h11M37 92h65M163 92h57M14 93h11M37 93h67M125 93h2M160 93h60M14 94h11M37 94h68M121 94h8M156 94h64M14 95h11M37 95h70M118 95h13M153 95h67M14 96h11M37 96h72M114 96h18M149 96h71M14 97h11M37 97h97M146 97h74M14 98h11M37 98h99M142 98h58M204 98h16M14 99h11M37 99h160M204 99h16M14 100h11M37 100h157M204 100h16M14 101h11M37 101h153M204 101h16M14 102h11M37 102h57M96 102h91M204 102h16M14 103h11M37 103h57M98 103h86M204 103h16M14 104h11M37 104h57M99 104h81M204 104h16M14 105h11M37 105h34M72 105h22M101 105h75M204 105h16M14 106h11M37 106h34M73 106h21M102 106h71M204 106h16M14 107h11M37 107h34M75 107h19M104 107h65M204 107h16M14 108h11M37 108h34M77 108h17M106 108h60M204 108h16M14 109h11M37 109h34M78 109h16M106 109h57M204 109h16M14 110h11M37 110h34M80 110h14M106 110h53M204 110h16M14 111h11M37 111h34M82 111h12M106 111h50M204 111h16M14 112h11M37 112h34M83 112h11M106 112h48M204 112h16M14 113h11M37 113h34M85 113h9M106 113h48M204 113h16M14 114h11M37 114h34M87 114h7M106 114h48M204 114h16M14 115h11M37 115h34M88 115h6M106 115h48M204 115h16M14 116h13M37 116h34M90 116h4M106 116h48M204 116h16M14 117h15M37 117h22M61 117h10M91 117h3M106 117h30M138 117h16M204 117h16M14 118h17M37 118h22M63 118h8M93 118h1M106 118h26M138 118h16M204 118h16M14 119h18M37 119h22M64 119h7M106 119h23M138 119h16M204 119h16M14 120h20M37 120h22M66 120h5M106 120h19M138 120h16M204 120h16M14 121h22M37 121h22M68 121h3M106 121h16M138 121h16M204 121h16M14 122h45M69 122h2M106 122h16M138 122h16M204 122h16M14 123h45M106 123h16M138 123h16M204 123h16M14 124h45M106 124h16M138 124h16M204 124h16M14 125h45M106 125h16M138 125h16M204 125h16M14 126h45M106 126h16M138 126h16M204 126h16M14 127h45M106 127h16M138 127h16M204 127h16M14 128h45M106 128h16M138 128h16M204 128h16M14 129h45M106 129h16M138 129h16M204 129h14M14 130h45M106 130h16M138 130h16M204 130h10M14 131h45M106 131h16M138 131h16M204 131h7M14 132h45M106 132h16M138 132h16M204 132h3M14 133h45M106 133h16M138 133h16M14 134h45M106 134h16M138 134h16M14 135h45M106 135h16M138 135h16M14 136h45M106 136h16M138 136h16M14 137h45M106 137h16M138 137h16M14 138h45M106 138h16M138 138h16M14 139h22M37 139h22M106 139h16M138 139h16M14 140h22M39 140h20M106 140h16M138 140h16M14 141h22M41 141h18M106 141h16M138 141h16M14 142h22M42 142h17M106 142h16M138 142h16M14 143h22M44 143h15M71 143h1M106 143h16M138 143h16M235 143h2M14 144h22M45 144h14M71 144h3M106 144h16M138 144h16M232 144h5M14 145h22M47 145h12M71 145h4M106 145h16M138 145h16M229 145h8M14 146h22M49 146h10M71 146h6M106 146h16M138 146h16M225 146h12M14 147h22M51 147h8M71 147h8M106 147h16M138 147h16M222 147h15M14 148h22M52 148h7M71 148h9M106 148h16M138 148h15M220 148h17M14 149h22M54 149h5M71 149h11M106 149h16M138 149h11M220 149h17M14 150h11M26 150h10M56 150h3M71 150h11M106 150h16M138 150h8M220 150h17M14 151h11M27 151h9M58 151h1M71 151h11M106 151h16M138 151h5M220 151h17M14 152h11M29 152h7M71 152h11M106 152h16M138 152h1M220 152h17M14 153h11M31 153h5M71 153h11M106 153h16M220 153h17M14 154h11M32 154h4M71 154h11M106 154h16M220 154h17M14 155h11M34 155h2M71 155h11M106 155h16M220 155h17M14 156h11M71 156h11M106 156h16M220 156h17M14 157h11M71 157h11M106 157h16M220 157h17M14 158h11M71 158h11M106 158h14M220 158h17M14 159h11M37 159h1M71 159h11M106 159h11M220 159h17M14 160h11M37 160h3M71 160h11M106 160h8M220 160h15M14 161h11M37 161h5M71 161h11M106 161h4M220 161h11M14 162h11M37 162h6M71 162h11M106 162h1M220 162h8M14 163h11M37 163h8M71 163h11M220 163h5M14 164h11M37 164h10M71 164h11M220 164h1M14 165h11M37 165h11M71 165h11M14 166h11M37 166h13M71 166h11M14 167h11M37 167h15M71 167h11M14 168h11M37 168h16M71 168h11M14 169h11M37 169h18M71 169h11M14 170h11M37 170h19M71 170h11M14 171h11M37 171h21M71 171h11M202 171h1M14 172h11M37 172h22M71 172h11M199 172h4M14 173h11M37 173h22M71 173h11M196 173h7M14 174h11M37 174h22M71 174h11M193 174h10M14 175h11M37 175h22M71 175h11M189 175h14M14 176h11M39 176h20M71 176h11M188 176h15M14 177h11M41 177h18M71 177h11M121 177h1M188 177h15M14 178h11M42 178h17M71 178h11M117 178h5M188 178h15M14 179h11M44 179h15M71 179h11M114 179h8M188 179h15M14 180h11M45 180h14M71 180h11M111 180h11M188 180h5M196 180h7M14 181h11M47 181h12M71 181h11M107 181h15M188 181h2M196 181h7M14 182h11M48 182h11M71 182h11M106 182h16M196 182h7M14 183h11M48 183h11M71 183h11M106 183h16M196 183h7M14 184h11M48 184h11M71 184h11M106 184h16M196 184h7M14 185h11M48 185h11M71 185h11M106 185h16M196 185h7M14 186h11M48 186h11M71 186h11M106 186h16M196 186h7M14 187h11M48 187h11M71 187h11M106 187h16M196 187h7M14 188h12M48 188h11M71 188h11M106 188h16M196 188h6M14 189h14M48 189h11M71 189h11M106 189h16M196 189h2M14 190h16M48 190h11M71 190h11M106 190h16M14 191h17M48 191h11M71 191h11M106 191h16M14 192h19M48 192h11M71 192h11M106 192h16M14 193h21M48 193h11M71 193h11M106 193h16M14 194h22M48 194h11M71 194h11M106 194h14M14 195h22M48 195h11M71 195h11M106 195h11M14 196h22M48 196h11M72 196h10M106 196h8M14 197h22M48 197h11M73 197h9M106 197h4M15 198h21M48 198h11M75 198h7M106 198h1M16 199h20M48 199h11M77 199h5M18 200h18M49 200h10M78 200h4M20 201h16M50 201h9M80 201h2M21 202h15M52 202h7M23 203h13M54 203h5M24 204h12M55 204h4M26 205h10M57 205h2M28 206h8M29 207h7M31 208h5M33 209h3M34 210h2" />
    <path stroke="#bb876f" d="M129 20h1M132 22h1M134 23h1M41 55h1M69 57h1M92 71h1M68 122h1M41 142h1M233 143h2M74 144h1M230 144h1M46 145h1M227 145h1M224 146h1M51 148h1M53 149h1" />
    <path stroke="#b57c67" d="M130 20h1M135 23h1M149 33h1M152 33h1M142 35h1M155 35h1M108 36h1M138 36h1M157 36h1M110 37h1M160 38h1M113 39h1M118 42h1M136 47h1M151 47h1" />
    <path stroke="rgba(170,128,128,0.023529411764705882)" d="M120 21h1M113 23h1M106 25h1M95 28h1" />
    <path stroke="rgba(189,139,114,0.5450980392156862)" d="M122 21h1M119 22h1M116 23h1M112 24h1" />
    <path stroke="rgba(189,139,114,0.7725490196078432)" d="M123 21h1M120 22h1M113 24h1M106 26h1" />
    <path stroke="#b9846d" d="M131 21h1M192 101h1M96 103h1M185 103h1M178 105h1M72 106h1M101 106h1M174 106h1M75 108h1M104 108h1M167 108h1M77 109h1M164 109h1M80 111h1M85 114h1M90 117h1M39 159h1M44 162h1M47 164h1M49 165h1M52 167h1" />
    <path stroke="rgba(183,124,103,0.2901960784313726)" d="M156 21h1M91 245h1M96 248h1" />
    <path stroke="rgba(170,128,85,0.023529411764705882)" d="M157 21h1M160 23h1M162 24h1M165 26h1M82 240h1M149 241h1M87 243h1M138 244h1M90 245h1M135 245h1M92 246h1" />
    <path stroke="rgba(190,138,114,0.2901960784313726)" d="M118 22h1M115 23h1" />
    <path stroke="#b7806a" d="M133 22h1M136 24h1M138 25h1M68 57h1M115 85h1M193 101h1M94 102h1M189 102h1M186 103h1M182 104h2M99 105h1M179 105h1M175 106h1M73 107h1M102 107h1M171 107h2M168 108h1M165 109h1M78 110h1M161 110h2M158 111h1M155 112h1M83 113h1M88 116h1M41 160h1M46 163h1M51 166h1M82 203h1M59 207h1" />
    <path stroke="rgba(191,149,106,0.047058823529411764)" d="M114 23h1M110 24h2M107 25h1M103 26h1M35 46h1M28 48h1M18 51h1" />
    <path stroke="rgba(182,123,103,0.5450980392156862)" d="M159 23h1M93 246h1" />
    <path stroke="rgba(181,124,104,0.2980392156862745)" d="M161 24h1M164 26h1M166 27h1M86 242h1M88 243h1" />
    <path stroke="rgba(188,138,114,0.2980392156862745)" d="M108 25h1M104 26h1M13 53h1" />
    <path stroke="rgba(190,139,114,0.5529411764705883)" d="M109 25h1M105 26h1M101 27h2M98 28h1M94 29h1" />
    <path stroke="#bb8770" d="M137 25h1M60 117h1M136 117h2M92 118h1M133 118h1M129 119h2M65 120h1M126 120h1M122 121h2M220 147h1" />
    <path stroke="rgba(191,128,106,0.047058823529411764)" d="M163 25h1M198 46h1M201 48h1M203 49h1M208 52h1M210 53h1M40 215h1M42 216h1M45 218h1M50 221h1M52 222h1M89 244h1" />
    <path stroke="#b9836c" d="M139 26h1M162 40h1M103 78h2M36 90h1M36 92h1M36 95h1M36 98h1M36 103h1M203 103h1M36 104h1M203 104h1M36 112h1M105 112h1M203 112h1M36 114h1M105 114h1M154 114h1M203 114h1M36 117h1M105 117h1M154 117h1M203 117h1M31 118h1M36 118h1M105 118h1M203 118h1M33 119h1M59 124h1M105 124h1M154 124h1M203 124h1M59 125h1M105 125h1M154 125h1M203 125h1M59 127h1M105 127h1M154 127h1M203 127h1M36 141h1M39 141h1M59 141h1M105 141h1M154 141h1M44 144h1M47 146h1M49 147h1M54 150h1M36 152h1M59 152h1M82 152h1M105 152h1M36 157h1M82 161h1M105 161h1M82 170h1M59 189h1M82 189h1M105 189h1M105 195h1M36 198h1M59 198h1M82 198h1M105 198h1M36 204h1M59 204h1M36 208h1" />
    <path stroke="rgba(182,146,109,0.054901960784313725)" d="M99 27h2M96 28h1M92 29h2M89 30h1M27 207h1M32 210h1M35 212h1" />
    <path stroke="#bd8a71" d="M135 27h1M132 28h1M129 29h1M125 30h2M122 31h1M118 32h2M56 50h1M131 50h1M60 51h1M133 51h1M46 53h1M136 53h1M65 54h1M68 56h1M141 56h1M146 59h1M149 61h1M121 62h1M151 62h1M117 63h1M154 64h1M110 65h1M156 65h1M177 66h1" />
    <path stroke="#bb866f" d="M136 27h1M133 28h1M123 31h1M29 117h1M58 152h1M121 158h1M117 159h1M114 160h1M111 161h1M107 162h2" />
    <path stroke="#b9826c" d="M137 27h1M134 28h1M130 29h2M127 30h1M124 31h1M120 32h1M116 33h2M42 55h1M26 115h1M56 151h1M118 159h1M115 160h1" />
    <path stroke="#b77f69" d="M138 27h1M128 30h1M121 32h1M30 117h1M35 120h1M52 149h1" />
    <path stroke="rgba(190,141,114,0.3058823529411765)" d="M97 28h1M90 30h1M87 31h1" />
    <path stroke="rgba(181,123,103,0.5529411764705883)" d="M167 28h1M85 241h1" />
    <path stroke="rgba(182,128,109,0.054901960784313725)" d="M168 28h1M215 56h1M217 57h1M220 59h1M225 62h1M37 213h1M79 238h1M84 241h1" />
    <path stroke="rgba(188,138,114,0.7803921568627451)" d="M95 29h1M85 32h1M82 33h1" />
    <path stroke="rgba(180,124,105,0.3058823529411765)" d="M169 29h1M171 30h1M174 32h1M78 237h1M81 239h1M83 240h1" />
    <path stroke="rgba(189,139,114,0.5607843137254902)" d="M91 30h1M88 31h1M84 32h1M81 33h1" />
    <path stroke="rgba(181,123,103,0.7803921568627451)" d="M170 30h1M175 33h1M178 35h1M72 233h1M74 234h1M77 236h1M82 239h1" />
    <path stroke="rgba(191,128,128,0.03137254901960784)" d="M85 31h1M82 32h1M72 35h1M69 36h1" />
    <path stroke="rgba(191,143,112,0.06274509803921569)" d="M86 31h1M83 32h1M79 33h1M76 34h1M73 35h1M14 199h1M17 201h1M19 202h1M22 204h1" />
    <path stroke="rgba(182,123,103,0.5607843137254902)" d="M172 31h1M75 235h1M80 238h1" />
    <path stroke="rgba(175,128,96,0.06274509803921569)" d="M173 31h1M176 33h1M230 65h1M233 67h1M235 68h1M71 233h1M76 236h1" />
    <path stroke="rgba(188,140,115,0.3137254901960784)" d="M80 33h1M77 34h1M13 198h1" />
    <path stroke="#bd8a72" d="M114 33h1M110 34h1M136 38h1M138 39h1M141 41h1M157 41h1M108 45h1M105 46h1" />
    <path stroke="#bc8a71" d="M115 33h1M111 34h1M107 35h2M139 40h1M161 40h1M158 41h1M154 42h1M115 43h2M144 43h1M150 43h2M112 44h1M146 44h2M109 45h1M106 46h1M102 47h1M103 67h1M159 67h1M174 67h1M100 68h1M97 69h1M26 78h1M102 78h1M106 79h1M29 80h1M132 80h1M31 81h1M92 81h1M126 81h1M111 82h1M123 82h1M135 82h1M34 83h1M120 83h1M137 83h1M154 83h1M114 84h1M151 84h1M140 85h1M144 86h1M200 98h1M53 168h1M56 170h1M58 171h1M120 177h1M110 180h1M26 188h1M31 191h1M33 192h1" />
    <path stroke="#b67c68" d="M150 33h2M146 34h2M153 34h1M143 35h1M139 36h1M135 37h2M158 37h1M111 38h1M116 41h1M143 45h2M140 46h1M149 46h1M137 47h1M134 48h1M130 49h1M137 68h1M131 69h1M128 70h1M140 70h1M142 71h1M121 72h1M96 73h1M118 73h1M145 73h1M98 74h1M216 75h1M101 76h1M150 76h1M213 76h1M105 77h1M155 79h1M203 79h1M158 81h1M196 81h1M189 83h1M182 85h1M179 86h1M172 88h1M169 89h1M100 90h1M102 91h1M124 92h1M127 92h1M159 92h1M105 93h1M117 94h1M152 94h1M132 95h1M134 96h1M145 96h1M141 97h1M38 177h1M40 178h1M43 180h1M71 197h1M76 200h1M48 201h1" />
    <path stroke="rgba(188,139,114,0.5686274509803921)" d="M78 34h1M74 35h2M71 36h1M68 37h1" />
    <path stroke="#ba866f" d="M112 34h1M136 98h1M140 98h1" />
    <path stroke="#b8826c" d="M113 34h1M109 35h1M135 38h1M140 41h1M160 41h1M156 42h1M117 43h1M143 43h1M152 43h2M114 44h1M149 44h1M111 45h1M107 46h1M104 47h1M93 71h1M177 87h1M174 88h1M167 90h1M101 91h1M164 91h1M128 93h1M106 94h1M119 94h1M154 94h1M109 96h1M112 96h1M133 96h1M135 97h1M143 97h1M39 177h1M44 180h1M105 181h1M47 182h1" />
    <path stroke="#b77e69" d="M114 34h1M110 35h1M136 39h1M138 40h1M141 42h1M157 42h1M118 43h1M108 46h1M105 47h1M56 51h1M131 51h1M60 52h1M133 52h1M46 54h1M136 54h1M65 55h1M141 57h1M146 60h1M149 62h1M121 63h1M151 63h1M117 64h1M154 65h1M110 66h1M156 66h1M28 116h1M119 159h1M116 160h1M112 161h2M109 162h1M106 163h1" />
    <path stroke="#ba846d" d="M148 34h1M144 35h2M154 35h1M107 36h1M141 36h1M137 37h1M112 39h1M115 41h1M145 45h2M142 46h1M148 46h1M139 47h1M102 48h1M135 48h1M141 86h1M146 86h1M198 99h1M195 100h1M54 168h1M57 170h1M118 177h1M115 178h1" />
    <path stroke="#bb8870" d="M149 34h1M152 34h1M142 36h1M155 36h1M108 37h1M138 37h1M157 37h1M110 38h1M160 39h1M113 40h1M136 48h1M151 48h1M103 49h1M133 49h1M105 50h1M154 50h1M156 51h1M108 52h1M159 53h1M161 54h1M113 55h1M42 56h1M164 56h1M45 58h1M118 58h1M47 59h1M64 59h1M169 59h1M61 60h1M121 60h1M50 61h1M123 61h1M54 62h1M174 62h1M177 64h1M179 65h1M191 101h1M188 102h1M184 103h1M98 104h1M180 104h2M177 105h1M173 106h1M74 107h1M103 107h1M170 107h1M166 108h1M163 109h1M160 110h1M156 111h2M82 112h1M87 115h1M37 158h1M42 161h1M45 163h1M50 166h1M81 202h1M53 203h1M56 205h1M58 206h1" />
    <path stroke="rgba(181,123,104,0.5686274509803921)" d="M177 34h1M182 37h1M70 232h1" />
    <path stroke="rgba(182,124,102,0.3137254901960784)" d="M179 35h1M73 234h1" />
    <path stroke="rgba(184,142,113,0.07058823529411765)" d="M70 36h1M66 37h2M63 38h1M60 39h1" />
    <path stroke="rgba(189,140,114,0.788235294117647)" d="M72 36h1M69 37h1M59 40h1M56 41h1M46 44h1" />
    <path stroke="#b8806a" d="M140 36h1M156 36h1M202 98h1M199 99h1M196 100h1" />
    <path stroke="rgba(181,123,103,0.788235294117647)" d="M180 36h1M183 38h1M185 39h1M188 41h1M193 44h1M57 224h1M59 225h1M64 228h1M67 230h1M69 231h1" />
    <path stroke="rgba(184,128,99,0.07058823529411765)" d="M181 36h1M186 39h1M66 230h1" />
    <path stroke="#b8806b" d="M109 37h1M159 38h1M161 39h1M114 40h1M117 42h1M147 45h1M141 46h1M138 47h1M150 47h1M152 48h1M104 49h1M131 49h1M119 84h1M153 84h1M116 85h1M150 85h1M147 86h1M142 87h2M121 176h1M117 177h1M114 178h1M111 179h1M107 180h2" />
    <path stroke="rgba(190,140,115,0.3215686274509804)" d="M64 38h1M61 39h1" />
    <path stroke="rgba(189,139,114,0.5764705882352941)" d="M65 38h1M62 39h1M58 40h1M55 41h1" />
    <path stroke="rgba(180,124,103,0.3215686274509804)" d="M184 38h1M187 40h1M63 228h1M65 229h1M68 231h1" />
    <path stroke="#ba866e" d="M137 39h1M159 41h1M142 42h1M155 42h1M113 44h1M145 44h1M148 44h1M110 45h1M103 47h1M158 82h1M188 84h1M36 85h1M184 85h2M181 86h1M178 87h1M175 88h1M171 89h1M99 90h1M168 90h1M165 91h1M161 92h2M104 93h1M123 93h1M158 93h1M120 94h1M129 94h1M155 94h1M107 95h1M116 95h1M131 95h1M151 95h1M113 96h1M147 96h2M144 97h1M203 98h1M41 178h1M46 181h1" />
    <path stroke="rgba(191,140,115,0.0784313725490196)" d="M57 40h1M53 41h2M50 42h1M47 43h1" />
    <path stroke="rgba(182,124,103,0.32941176470588235)" d="M189 41h1M192 43h1M194 44h1M58 225h1M60 226h1" />
    <path stroke="rgba(188,140,115,0.32941176470588235)" d="M51 42h1M44 44h1" />
    <path stroke="rgba(188,139,115,0.5843137254901961)" d="M52 42h1M48 43h2M45 44h1M41 45h2M38 46h1" />
    <path stroke="rgba(181,123,103,0.5843137254901961)" d="M190 42h1M195 45h1M55 223h1" />
    <path stroke="rgba(179,128,102,0.0784313725490196)" d="M191 42h1M202 225h2M199 226h1M61 227h1M196 227h1" />
    <path stroke="rgba(185,139,116,0.08627450980392157)" d="M43 44h1M39 45h2M36 46h1M32 47h1" />
    <path stroke="rgba(185,128,104,0.08627450980392157)" d="M196 45h1M199 47h1M54 223h1M56 224h1" />
    <path stroke="rgba(190,139,113,0.33725490196078434)" d="M37 46h1M33 47h1M26 49h1" />
    <path stroke="rgba(181,122,104,0.33725490196078434)" d="M197 46h1M202 49h1M51 221h1M53 222h1" />
    <path stroke="rgba(189,138,115,0.592156862745098)" d="M34 47h1M30 48h2M27 49h1M24 50h1" />
    <path stroke="rgba(188,139,114,0.796078431372549)" d="M35 47h1M28 49h1M18 52h1" />
    <path stroke="rgba(181,123,103,0.796078431372549)" d="M198 47h1M201 49h1M203 50h1M45 217h1M50 220h1M52 221h1" />
    <path stroke="rgba(191,138,117,0.09411764705882353)" d="M29 48h1M25 49h1M22 50h1M19 51h1M15 52h2" />
    <path stroke="#b57c68" d="M103 48h1M133 48h1M105 49h1M154 49h1M156 50h1M108 51h1M159 52h1M161 53h1M113 54h1M164 55h1M45 57h1M118 57h1M47 58h1M64 58h1M169 58h1M61 59h1M121 59h1M50 60h1M123 60h1M54 61h1M174 61h1M177 63h1M179 64h1M79 202h1M81 203h1M53 204h1M56 206h1M58 207h1" />
    <path stroke="rgba(181,123,103,0.592156862745098)" d="M200 48h1M48 219h1" />
    <path stroke="#ba846e" d="M132 49h1M153 49h1M35 84h1M118 84h1M139 85h1M149 85h1" />
    <path stroke="rgba(188,139,113,0.34509803921568627)" d="M23 50h1" />
    <path stroke="#bc8971" d="M57 50h2M53 51h1M50 52h1M134 52h1M47 53h1M63 53h1M43 54h2M66 55h1M139 55h1M144 58h1M122 62h1M118 63h1M152 63h1M114 64h2M111 65h1M107 66h1M157 66h1M178 66h1M104 67h1M175 67h1M101 68h1M171 68h2M98 69h1M162 69h1M168 69h1M94 70h1M164 70h2M190 101h1M95 102h1M187 102h1M97 103h1M71 105h1M100 105h1M176 105h1M169 107h1M76 108h1M105 108h1M79 110h1M159 110h1M81 111h1M84 113h1M86 114h1M89 116h1M62 118h1M132 118h1M125 120h1M67 121h1M70 123h1M36 139h1M38 140h1M40 141h1M43 143h1M72 143h1M231 144h1M75 145h1M228 145h1M77 146h1M221 147h1M80 148h1M38 159h1M40 160h1M43 162h1M48 165h1" />
    <path stroke="#b67d68" d="M106 50h1M157 51h1M111 53h1M162 54h1M43 56h1M116 56h1M167 57h1M65 58h1M48 59h1M62 59h1M58 60h1M172 60h1M55 61h1M124 61h1M180 65h1M135 68h2M132 69h1M138 69h1M129 70h1M125 71h1M94 72h1M122 72h1M143 72h1M25 114h1M27 115h1M32 118h1M34 119h1M67 122h1M70 124h1M38 141h1M40 142h1M72 142h1M231 143h1M43 144h1M75 144h1M228 144h1M77 145h1M48 147h1M50 148h1M55 151h1M57 152h1M59 153h1M120 159h1M110 162h1M105 163h1M185 175h1M178 177h1M174 178h1M73 198h1M78 201h1M50 202h1M55 205h1" />
    <path stroke="#b8826b" d="M130 50h1M187 84h1" />
    <path stroke="#b8816b" d="M155 50h1M55 51h1M52 52h1M109 52h1M48 53h2M62 53h1M135 53h1M160 53h1M45 54h1M112 54h1M114 55h1M138 55h1M67 56h1M165 56h1M117 57h1M46 58h1M119 58h1M143 58h1M168 58h1M170 59h1M49 60h1M59 60h1M122 60h1M51 61h1M56 61h1M148 61h1M173 61h1M123 62h2M175 62h1M120 63h1M116 64h1M153 64h1M178 64h1M112 65h2M109 66h1M180 66h1M106 67h1M158 67h1M176 67h1M102 68h1M173 68h1M99 69h1M161 69h1M170 69h1M96 70h1M166 70h2M126 71h1M141 71h1M123 72h1M144 73h1M97 74h1M146 74h1M113 75h1M218 75h1M100 76h1M110 76h1M149 76h1M102 77h1M151 77h1M208 78h1M154 79h1M28 80h1M201 80h1M129 81h1M125 82h1M134 82h1M194 82h1M122 83h1M156 83h2M82 149h1M29 189h1M72 197h1M75 199h1M77 200h1M49 201h1M80 202h1M52 203h1M54 204h1M57 206h1" />
    <path stroke="rgba(180,122,104,0.34509803921568627)" d="M204 50h1M209 53h1M41 215h1M44 217h1M46 218h1" />
    <path stroke="rgba(188,138,113,0.6)" d="M20 51h2M17 52h1M14 53h1" />
    <path stroke="#ba856e" d="M54 51h1M59 51h1M107 51h1M132 51h1M51 52h1M61 52h1M158 52h1M110 53h1M64 54h1M137 54h1M163 55h1M115 56h1M140 56h1M44 57h1M142 57h1M166 57h1M66 58h2M63 59h1M120 59h1M145 59h1M60 60h1M147 60h1M171 60h1M57 61h1M52 62h2M150 62h1M119 63h1M176 63h1M155 65h1M108 66h1M179 66h1M105 67h1M160 68h1M133 69h2M169 69h1M95 70h1M130 70h1M139 70h1M163 70h1M127 71h1M124 72h1M95 73h1M120 73h1M117 74h1M114 75h1M147 75h1M219 75h1M111 76h1M215 76h1M107 77h2M212 77h1M25 78h1M152 78h1M209 78h1M205 79h2M202 80h1M30 81h1M128 81h1M157 81h1M198 81h2M195 82h1M33 83h1M136 83h1M191 83h2M154 112h1M59 117h1M25 187h1M27 188h1M32 191h1M34 192h1M74 198h1M51 202h1" />
    <path stroke="rgba(182,123,103,0.6)" d="M205 51h1M207 52h1M43 216h1" />
    <path stroke="rgba(181,128,106,0.09411764705882353)" d="M206 51h1M47 219h1M49 220h1" />
    <path stroke="rgba(182,123,103,0.803921568627451)" d="M208 53h1M210 54h1M215 57h1M217 58h1M220 60h1M37 212h1M40 214h1M42 215h1" />
    <path stroke="rgba(188,140,113,0.49411764705882355)" d="M13 54h1M13 55h1M13 56h1M13 57h1M13 58h1M13 59h1M13 60h1M13 61h1M13 62h1M13 63h1M13 64h1M13 65h1M13 66h1M13 67h1M13 68h1M13 69h1M13 70h1M13 71h1M13 72h1M13 73h1M13 74h1M13 75h1M13 76h1M13 77h1M13 78h1M13 79h1M13 80h1M13 81h1M13 82h1M13 83h1M13 84h1M13 85h1M13 86h1M13 87h1M13 88h1M13 89h1M13 90h1M13 91h1M13 92h1M13 93h1M13 94h1M13 95h1M13 96h1M13 97h1M13 98h1M13 99h1M13 100h1M13 101h1M13 102h1M13 103h1M13 104h1M13 105h1M13 106h1M13 107h1M13 108h1M13 109h1M13 110h1M13 111h1M13 112h1M13 113h1M13 114h1M13 115h1M13 116h1M13 117h1M13 118h1M13 119h1M13 120h1M13 121h1M13 122h1M13 123h1M13 124h1M13 125h1M13 126h1M13 127h1M13 128h1M13 129h1M13 130h1M13 131h1M13 132h1M13 133h1M13 134h1M13 135h1M13 136h1M13 137h1M13 138h1M13 139h1M13 140h1M13 141h1M13 142h1M13 143h1M13 144h1M13 145h1M13 146h1M13 147h1M13 148h1M13 149h1M13 150h1M13 151h1M13 152h1M13 153h1M13 154h1M13 155h1M13 156h1M13 157h1M13 158h1M13 159h1M13 160h1M13 161h1M13 162h1M13 163h1M13 164h1M13 165h1M13 166h1M13 167h1M13 168h1M13 169h1M13 170h1M13 171h1M13 172h1M13 173h1M13 174h1M13 175h1M13 176h1M13 177h1M13 178h1M13 179h1M13 180h1M13 181h1M13 182h1M13 183h1M13 184h1M13 185h1M13 186h1M13 187h1M13 188h1M13 189h1M13 190h1M13 191h1M13 192h1M13 193h1M13 194h1M13 195h1M13 196h1M13 197h1" />
    <path stroke="rgba(181,122,102,0.35294117647058826)" d="M211 54h1M216 57h1" />
    <path stroke="rgba(181,123,104,0.6078431372549019)" d="M212 55h1M214 56h1M38 213h1" />
    <path stroke="rgba(177,128,108,0.10196078431372549)" d="M213 55h1M39 214h1" />
    <path stroke="rgba(182,128,100,0.10980392156862745)" d="M218 58h1" />
    <path stroke="rgba(180,123,102,0.615686274509804)" d="M219 59h1M222 61h1" />
    <path stroke="rgba(180,122,103,0.3607843137254902)" d="M221 60h1" />
    <path stroke="rgba(179,119,102,0.11764705882352941)" d="M223 61h1M228 64h1" />
    <path stroke="rgba(182,122,103,0.3686274509803922)" d="M224 62h1M226 63h1M229 65h1M231 66h1" />
    <path stroke="rgba(181,123,103,0.8117647058823529)" d="M225 63h1M230 66h1M233 68h1M235 69h1" />
    <path stroke="rgba(181,123,103,0.6235294117647059)" d="M227 64h1M232 67h1" />
    <path stroke="#b67e69" d="M177 67h1M103 68h1M159 68h1M174 68h1M100 69h1M97 70h1M26 79h1M29 81h1M132 81h1M31 82h1M126 82h1M123 83h1M135 83h1M34 84h1M120 84h1M137 84h1M154 84h1M186 84h1M151 85h1M183 85h1M140 86h1M180 86h1M144 87h1M176 87h1M173 88h1M170 89h1M166 90h1M163 91h1M103 92h1M125 92h2M160 92h1M121 93h2M156 93h2M118 94h1M130 94h1M153 94h1M108 95h1M114 95h2M149 95h2M110 96h2M146 96h1M142 97h1M137 98h3M200 99h1M56 169h1M58 170h1M59 171h1M37 176h1M120 176h1M42 179h1M110 179h1M45 181h1M26 187h1M31 190h1M33 191h1M36 193h1" />
    <path stroke="rgba(181,122,104,0.3764705882352941)" d="M234 68h1" />
    <path stroke="#bc8870" d="M137 69h1M131 70h1M128 71h1M140 71h1M93 72h1M142 72h1M121 73h1M96 74h1M118 74h1M145 74h1M98 75h1M216 76h1M101 77h1M150 77h1M213 77h1M105 78h1M155 80h1M203 80h1M196 82h1M117 84h1M138 84h1M152 84h1M189 84h1M148 85h1M145 86h1M182 86h1M179 87h1M172 89h1M169 90h1M100 91h1M102 92h1M124 93h1M127 93h1M159 93h1M105 94h1M117 95h1M152 95h1M132 96h1M134 97h1M145 97h1M141 98h1M201 98h1M197 99h1M194 100h1M55 169h1M38 176h1M40 177h1M119 177h1M116 178h1M43 179h1M112 179h2M109 180h1M106 181h1M71 196h1M76 199h1M48 200h1M79 201h1" />
    <path stroke="rgba(183,120,104,0.12549019607843137)" d="M236 69h1" />
    <path stroke="#b67d69" d="M119 73h1M115 74h2M99 75h1M112 75h1M148 75h1M217 75h1M109 76h1M214 76h1M106 77h1M210 77h2M153 78h1M207 78h1M204 79h1M156 80h1M200 80h1M197 81h1M193 82h1M190 83h1M190 102h1M95 103h1M187 103h1M97 104h1M71 106h1M100 106h1M176 106h1M169 108h1M76 109h1M79 111h1M159 111h1M81 112h1M84 114h1M86 115h1M89 117h1M62 119h1M132 119h1M125 121h1M221 146h1M80 147h1M38 158h1M40 159h1M43 161h1M48 164h1M53 167h1" />
    <path stroke="#bc8970" d="M27 79h1M99 79h1M130 80h2M127 81h1M133 81h1M32 82h1M124 82h1M121 83h1M155 83h1M25 115h1M27 116h1M32 119h1M34 120h1M36 121h1M48 146h1M50 147h1M25 150h1M55 150h1M57 151h1M30 153h1M33 155h1M35 156h1M120 158h1M110 161h1M28 189h1M30 190h1M35 193h1" />
    <path stroke="#b9856c" d="M100 79h1M105 79h1M97 80h1M107 80h1M110 82h1" />
    <path stroke="#b78168" d="M101 79h1M98 80h1" />
    <path stroke="#b57e65" d="M102 79h1M106 80h1M92 82h1M111 83h1M91 85h1M98 89h1M27 152h1M32 155h1" />
    <path stroke="#b37b62" d="M103 79h2M99 80h7M96 81h12M93 82h17M89 83h22M90 84h23M92 85h22M94 86h16M96 87h11M97 88h6M25 152h2M25 153h4M25 154h5M25 155h7M25 156h8M25 157h10M25 158h11M25 159h11M25 160h11M25 161h11M25 162h11M25 163h11M25 164h11M25 165h11M25 166h11M219 166h1M25 167h11M215 167h5M26 168h10M212 168h8M27 169h9M209 169h11M29 170h7M205 170h15M31 171h5M204 171h16M32 172h4M204 172h16M34 173h2M204 173h16M204 174h16M204 175h16M204 176h16M204 177h16M204 178h16M204 179h16M204 180h16M204 181h16M204 182h16M204 183h16M204 184h16M204 185h16M204 186h16M204 187h16M204 188h16M204 189h16M204 190h16M135 191h3M204 191h16M131 192h7M204 192h16M128 193h10M204 193h16M124 194h14M204 194h16M122 195h16M204 195h16M122 196h16M204 196h16M122 197h16M204 197h16M122 198h16M204 198h16M122 199h16M204 199h16M122 200h16M204 200h16M122 201h16M204 201h16M122 202h16M204 202h16M122 203h16M204 203h16M122 204h16M204 204h16M122 205h16M204 205h16M122 206h16M204 206h16M122 207h16M202 207h18M122 208h16M199 208h21M122 209h16M196 209h24M122 210h16M196 210h24M122 211h16M196 211h24M122 212h16M196 212h24M122 213h16M196 213h24M122 214h16M196 214h24M122 215h16M196 215h24M122 216h16M196 216h24M122 217h16M196 217h24M122 218h16M196 218h24M122 219h16M196 219h24M122 220h16M196 220h21M122 221h16M155 221h3M196 221h18M122 222h16M151 222h7M196 222h14M122 223h16M148 223h10M196 223h11M122 224h16M145 224h13M196 224h8M122 225h16M142 225h16M196 225h4M122 226h36M196 226h1M122 227h36M122 228h36M122 229h36M122 230h36M122 231h36M122 232h36M122 233h36M122 234h36M122 235h36M122 236h36M122 237h36M122 238h34M122 239h31M122 240h27M122 241h24M122 242h20M122 243h16M122 244h13M122 245h10M122 246h7M122 247h3" />
    <path stroke="#bb8970" d="M96 80h1M93 81h1M109 81h1M89 82h2M112 83h1" />
    <path stroke="#b68168" d="M94 81h2M108 81h1M91 82h1" />
    <path stroke="#b77f6a" d="M159 82h1M91 118h1M135 118h1M131 119h1M64 120h1M128 120h1M124 121h1M69 123h1M37 140h1M235 142h1M42 143h1M73 143h1M232 143h1M229 144h1M45 145h1M225 145h1M78 146h1M222 146h1" />
    <path stroke="#bb876e" d="M87 83h1" />
    <path stroke="#b78269" d="M88 83h1M89 84h1M94 87h1M96 88h1" />
    <path stroke="#bb886f" d="M88 84h1M93 87h1M95 88h1" />
    <path stroke="#b68067" d="M113 84h1" />
    <path stroke="#ba866d" d="M90 85h1M92 86h1M97 89h1M28 152h1" />
    <path stroke="#b57e66" d="M114 85h1" />
    <path stroke="#b9836d" d="M36 86h1M36 87h1M36 88h1M36 89h1M36 91h1M36 93h1M36 94h1M36 96h1M36 97h1M36 99h1M203 99h1M36 100h1M203 100h1M36 101h1M203 101h1M36 102h1M203 102h1M36 105h1M203 105h1M36 106h1M203 106h1M36 107h1M203 107h1M36 108h1M203 108h1M36 109h1M105 109h1M203 109h1M36 110h1M105 110h1M203 110h1M36 111h1M105 111h1M203 111h1M36 113h1M105 113h1M154 113h1M203 113h1M36 115h1M105 115h1M154 115h1M203 115h1M36 116h1M105 116h1M154 116h1M203 116h1M59 118h1M61 118h1M134 118h1M154 118h1M36 119h1M59 119h1M63 119h1M93 119h1M105 119h1M154 119h1M203 119h1M36 120h1M59 120h1M105 120h1M127 120h1M154 120h1M203 120h1M59 121h1M66 121h1M105 121h1M154 121h1M203 121h1M59 122h1M105 122h1M154 122h1M203 122h1M59 123h1M105 123h1M154 123h1M203 123h1M59 126h1M105 126h1M154 126h1M203 126h1M59 128h1M105 128h1M154 128h1M203 128h1M59 129h1M105 129h1M154 129h1M203 129h1M59 130h1M105 130h1M154 130h1M203 130h1M59 131h1M105 131h1M154 131h1M203 131h1M59 132h1M105 132h1M154 132h1M203 132h1M59 133h1M105 133h1M154 133h1M59 134h1M105 134h1M154 134h1M59 135h1M105 135h1M154 135h1M59 136h1M105 136h1M154 136h1M59 137h1M105 137h1M154 137h1M59 138h1M105 138h1M154 138h1M59 139h1M105 139h1M154 139h1M36 140h1M59 140h1M105 140h1M154 140h1M36 142h1M59 142h1M71 142h1M105 142h1M154 142h1M236 142h1M36 143h1M59 143h1M105 143h1M154 143h1M36 144h1M59 144h1M105 144h1M154 144h1M36 145h1M59 145h1M76 145h1M105 145h1M154 145h1M226 145h1M36 146h1M59 146h1M105 146h1M154 146h1M223 146h1M36 147h1M59 147h1M79 147h1M105 147h1M154 147h1M36 148h1M59 148h1M81 148h1M105 148h1M36 149h1M59 149h1M105 149h1M36 150h1M59 150h1M82 150h1M105 150h1M36 151h1M59 151h1M82 151h1M105 151h1M36 153h1M82 153h1M105 153h1M36 154h1M82 154h1M105 154h1M36 155h1M82 155h1M105 155h1M36 156h1M82 156h1M105 156h1M82 157h1M105 157h1M82 158h1M105 158h1M82 159h1M105 159h1M82 160h1M105 160h1M82 162h1M105 162h1M82 163h1M82 164h1M82 165h1M82 166h1M82 167h1M82 168h1M82 169h1M82 171h1M59 172h1M82 172h1M59 173h1M82 173h1M59 174h1M82 174h1M59 175h1M82 175h1M59 176h1M82 176h1M59 177h1M82 177h1M59 178h1M82 178h1M59 179h1M82 179h1M59 180h1M82 180h1M59 181h1M82 181h1M59 182h1M82 182h1M105 182h1M59 183h1M82 183h1M105 183h1M59 184h1M82 184h1M105 184h1M59 185h1M82 185h1M105 185h1M59 186h1M82 186h1M105 186h1M59 187h1M82 187h1M105 187h1M59 188h1M82 188h1M105 188h1M59 190h1M82 190h1M105 190h1M59 191h1M82 191h1M105 191h1M59 192h1M82 192h1M105 192h1M59 193h1M82 193h1M105 193h1M36 194h1M59 194h1M82 194h1M105 194h1M36 195h1M59 195h1M82 195h1M36 196h1M59 196h1M82 196h1M105 196h1M36 197h1M59 197h1M82 197h1M105 197h1M36 199h1M59 199h1M82 199h1M36 200h1M59 200h1M82 200h1M36 201h1M59 201h1M82 201h1M36 202h1M59 202h1M82 202h1M36 203h1M59 203h1M36 205h1M59 205h1M36 206h1M59 206h1M36 207h1M36 209h1M36 210h1M36 211h1" />
    <path stroke="#b47c63" d="M93 86h1M95 87h1" />
    <path stroke="#b37b63" d="M110 86h2M107 87h1M103 88h1M99 89h2M25 168h1M30 171h1M33 173h1M35 174h1" />
    <path stroke="#b47b65" d="M112 86h1M108 87h2M105 88h1M101 89h1M26 169h1M29 171h1M31 172h1M34 174h1" />
    <path stroke="#b57b66" d="M113 86h1M106 88h1M102 89h1M27 170h1M32 173h1" />
    <path stroke="#b47b64" d="M104 88h1M28 170h1" />
    <path stroke="#9c725b" d="M218 129h2" />
    <path stroke="#ac7e66" d="M214 130h1" />
    <path stroke="#9b725a" d="M215 130h1M211 131h1M207 132h2" />
    <path stroke="#795842" d="M216 130h1M212 131h1" />
    <path stroke="#573f2a" d="M217 130h1" />
    <path stroke="#332411" d="M218 130h2M215 131h5M211 132h9M207 133h13M204 134h16M201 135h19M197 136h23M194 137h26M191 138h29M188 139h32M184 140h36M181 141h39M178 142h42M175 143h45M171 144h49M168 145h52M164 146h56M160 147h58M157 148h58M153 149h59M150 150h58M147 151h58M143 152h58M140 153h58M137 154h57M133 155h58M130 156h57M127 157h57M124 158h57M122 159h55M122 160h52M122 161h49M122 162h45M122 163h42M122 164h39M122 165h36M122 166h32M122 167h29M122 168h25M122 169h21M122 170h18M122 171h14M122 172h11M122 173h8M122 174h5M122 175h1" />
    <path stroke="#563e2a" d="M213 131h1M209 132h2" />
    <path stroke="#45311d" d="M214 131h1" />
    <path stroke="#a87660" d="M203 133h1" />
    <path stroke="#9b715a" d="M204 133h1" />
    <path stroke="#785842" d="M205 133h1" />
    <path stroke="#563e29" d="M206 133h1" />
    <path stroke="#a5705c" d="M200 134h1" />
    <path stroke="#946551" d="M201 134h1M197 135h1M194 136h1M191 137h1" />
    <path stroke="#543a27" d="M202 134h1" />
    <path stroke="#432f1c" d="M203 134h1M200 135h1" />
    <path stroke="#744f3c" d="M198 135h1M195 136h1" />
    <path stroke="#533a26" d="M199 135h1" />
    <path stroke="#533926" d="M196 136h1M193 137h1M189 138h1" />
    <path stroke="#a4705c" d="M190 137h1M187 138h1M177 141h1" />
    <path stroke="#734f3c" d="M192 137h1" />
    <path stroke="#936551" d="M188 138h1" />
    <path stroke="#432f1b" d="M190 138h1" />
    <path stroke="#936451" d="M184 139h2M181 140h1" />
    <path stroke="#523926" d="M186 139h1M183 140h1" />
    <path stroke="#432e1b" d="M187 139h1" />
    <path stroke="#734f3b" d="M182 140h1" />
    <path stroke="#936450" d="M178 141h1M175 142h1" />
    <path stroke="#724e3b" d="M179 141h1M172 143h1" />
    <path stroke="#523925" d="M180 141h1" />
    <path stroke="#a46f5c" d="M174 142h1" />
    <path stroke="#523825" d="M176 142h1" />
    <path stroke="#422e1b" d="M177 142h1M174 143h1M167 145h1M163 146h1M156 148h1" />
    <path stroke="#926450" d="M171 143h1M168 144h1" />
    <path stroke="#513825" d="M173 143h1M169 144h2M166 145h1M162 146h1" />
    <path stroke="#a46f5b" d="M167 144h1" />
    <path stroke="#a36f5b" d="M163 145h1M156 147h1" />
    <path stroke="#926350" d="M164 145h1M160 146h2" />
    <path stroke="#714e3a" d="M165 145h1" />
    <path stroke="#91634f" d="M157 147h1" />
    <path stroke="#503824" d="M158 147h2M155 148h1" />
    <path stroke="#4f4232" d="M218 147h1" />
    <path stroke="#6b6052" d="M219 147h1" />
    <path stroke="#976f57" d="M153 148h1" />
    <path stroke="#74533e" d="M154 148h1" />
    <path stroke="#6b6153" d="M215 148h1" />
    <path stroke="#9e978e" d="M216 148h1" />
    <path stroke="#d1ceca" d="M217 148h1" />
    <path stroke="#e8e6e4" d="M218 148h1" />
    <path stroke="#ffffff" d="M219 148h1M215 149h5M212 150h8M209 151h11M205 152h15M204 153h16M204 154h16M204 155h16M204 156h16M204 157h16M204 158h16M204 159h16M204 160h16M204 161h16M204 162h16M204 163h16M204 164h16M204 165h14M204 166h11M204 167h8M204 168h4M204 169h1M137 172h1M133 173h5M130 174h8M127 175h11M124 176h14M122 177h16M122 178h16M122 179h16M122 180h16M122 181h16M122 182h16M122 183h16M122 184h16M122 185h16M122 186h16M122 187h16M122 188h16M122 189h16M122 190h12M122 191h9M122 192h5M122 193h2" />
    <path stroke="#aa7d65" d="M149 149h1" />
    <path stroke="#976e57" d="M150 149h1" />
    <path stroke="#523b27" d="M151 149h2" />
    <path stroke="#6c6153" d="M212 149h1" />
    <path stroke="#9f988f" d="M213 149h1" />
    <path stroke="#d2ceca" d="M214 149h1" />
    <path stroke="#aa7d64" d="M146 150h1" />
    <path stroke="#966e57" d="M147 150h1M143 151h1" />
    <path stroke="#513b26" d="M148 150h1M145 151h1" />
    <path stroke="#422f1c" d="M149 150h1M146 151h1" />
    <path stroke="#504332" d="M208 150h1" />
    <path stroke="#6c6154" d="M209 150h1" />
    <path stroke="#d2cfca" d="M210 150h2" />
    <path stroke="#b47d64" d="M25 151h1M30 154h1M33 156h1M35 157h1" />
    <path stroke="#b88269" d="M26 151h1M29 153h1M31 154h1M34 156h1" />
    <path stroke="#74543e" d="M144 151h1" />
    <path stroke="#6d6254" d="M205 151h2" />
    <path stroke="#d2cfcb" d="M207 151h1" />
    <path stroke="#e9e7e5" d="M208 151h1" />
    <path stroke="#a97c64" d="M139 152h1" />
    <path stroke="#966e56" d="M140 152h1" />
    <path stroke="#73543e" d="M141 152h1" />
    <path stroke="#513a26" d="M142 152h1M138 153h1" />
    <path stroke="#2c3411" d="M201 152h1M194 154h1" />
    <path stroke="#254411" d="M202 152h1" />
    <path stroke="#7c8a6e" d="M203 152h1" />
    <path stroke="#d3cfcb" d="M204 152h1" />
    <path stroke="#a26f5b" d="M136 153h1" />
    <path stroke="#90624e" d="M137 153h1M133 154h2" />
    <path stroke="#422f1b" d="M139 153h1" />
    <path stroke="#244511" d="M198 153h2M195 154h1M191 155h2M188 156h1" />
    <path stroke="#0b7d11" d="M200 153h1" />
    <path stroke="#058a11" d="M201 153h1M194 155h1" />
    <path stroke="#009611" d="M202 153h1M198 154h5M195 155h8M191 156h12M188 157h15M188 158h15M188 159h15M188 160h15M188 161h15M188 162h15M188 163h15M188 164h15M188 165h15M188 166h15M188 167h15M151 168h3M188 168h15M147 169h7M188 169h15M144 170h10M188 170h14M140 171h14M188 171h10M138 172h16M188 172h7M138 173h16M188 173h4M138 174h16M188 174h1M138 175h16M138 176h16M138 177h16M138 178h16M138 179h16M138 180h16M138 181h16M138 182h16M138 183h16M138 184h16M138 185h13M138 186h10M138 187h6M138 188h3" />
    <path stroke="#80cb88" d="M203 153h1M203 155h1M203 157h1M203 158h1M203 159h1M203 160h1M203 161h1M203 162h1M203 163h1M203 164h1M203 165h1M203 166h1M203 167h1M203 168h1M203 169h1" />
    <path stroke="#4f3723" d="M135 154h1" />
    <path stroke="#412d1a" d="M136 154h1" />
    <path stroke="#186111" d="M196 154h1" />
    <path stroke="#0b7e11" d="M197 154h1M193 155h1M190 156h1" />
    <path stroke="#7fcb88" d="M203 154h1M203 156h1" />
    <path stroke="#8f624e" d="M130 155h1M127 156h1" />
    <path stroke="#6f4c39" d="M131 155h1" />
    <path stroke="#4e3623" d="M132 155h1M129 156h1M125 157h2M122 158h1" />
    <path stroke="#6f4c38" d="M128 156h1" />
    <path stroke="#2c3511" d="M187 156h1" />
    <path stroke="#176211" d="M189 156h1" />
    <path stroke="#a26e5a" d="M123 157h1" />
    <path stroke="#8f614e" d="M124 157h1" />
    <path stroke="#593e2a" d="M184 157h2M181 158h1" />
    <path stroke="#9a6955" d="M186 157h1M183 158h1M180 159h1" />
    <path stroke="#4d7f33" d="M187 157h1" />
    <path stroke="#b8836a" d="M36 158h1M36 159h1M36 160h1M36 161h1M36 162h1M36 163h1M36 164h1M36 165h1M36 166h1M36 167h1M36 168h1M36 169h1M36 170h1M36 171h1M203 171h1M36 172h1M203 172h1M36 173h1M203 173h1M36 174h1M203 174h1M203 175h1M203 176h1M203 177h1M203 178h1M203 179h1M203 180h1M203 181h1M203 182h1M203 183h1M203 184h1M203 185h1M203 186h1M203 187h1" />
    <path stroke="#402d1a" d="M123 158h1" />
    <path stroke="#7a5340" d="M182 158h1" />
    <path stroke="#5b893c" d="M187 158h1M187 159h1M187 160h1M187 161h1M187 162h1M187 163h1M187 164h1M187 165h1M187 166h1M187 167h1M154 168h1M187 168h1M154 169h1M187 169h1M154 170h1M187 170h1M154 171h1M154 172h1M154 173h1M187 173h1M154 174h1M187 174h1M154 175h1M154 176h1M154 178h1M154 179h1M154 180h1M154 181h1M154 183h1" />
    <path stroke="#46311e" d="M177 159h1M174 160h1" />
    <path stroke="#5a3e2b" d="M178 159h1M175 160h1M171 161h1M168 162h1" />
    <path stroke="#7a5440" d="M179 159h1" />
    <path stroke="#9b6956" d="M176 160h1" />
    <path stroke="#a8725e" d="M177 160h1M174 161h1" />
    <path stroke="#b07e64" d="M235 160h1" />
    <path stroke="#a47258" d="M236 160h1M226 163h1M223 164h1" />
    <path stroke="#7b5440" d="M172 161h1M169 162h1" />
    <path stroke="#9b6a56" d="M173 161h1M170 162h1M166 163h1" />
    <path stroke="#b6846b" d="M231 161h1M228 162h1M221 164h1" />
    <path stroke="#af7d64" d="M232 161h1M229 162h1M225 163h1M222 164h1" />
    <path stroke="#99674c" d="M233 161h2M230 162h1M227 163h1M224 164h1M220 165h1" />
    <path stroke="#905e43" d="M235 161h2M232 162h5M229 163h8M225 164h12M222 165h15M220 166h17M220 167h17M220 168h17M220 169h17M220 170h17M220 171h17M220 172h17M220 173h17M220 174h17M220 175h17M220 176h17M220 177h17M220 178h17M220 179h17M220 180h17M194 181h1M220 181h17M190 182h5M220 182h17M187 183h8M220 183h17M183 184h12M220 184h17M180 185h15M220 185h17M177 186h18M220 186h17M173 187h22M220 187h17M170 188h25M220 188h17M167 189h28M220 189h17M164 190h31M220 190h17M160 191h35M220 191h17M159 192h36M220 192h17M159 193h36M220 193h17M159 194h36M220 194h17M121 195h1M159 195h36M220 195h17M117 196h5M159 196h36M220 196h17M114 197h8M159 197h36M220 197h17M111 198h11M159 198h36M220 198h17M107 199h15M159 199h36M220 199h17M106 200h16M159 200h36M220 200h17M106 201h16M159 201h36M220 201h17M106 202h16M159 202h36M220 202h17M106 203h16M159 203h36M220 203h17M106 204h16M159 204h36M220 204h17M106 205h16M159 205h36M220 205h17M106 206h16M159 206h36M220 206h17M106 207h16M159 207h36M220 207h17M106 208h16M159 208h36M220 208h17M106 209h16M159 209h36M220 209h17M106 210h16M159 210h36M220 210h17M106 211h16M159 211h36M220 211h17M106 212h16M159 212h36M220 212h17M106 213h16M159 213h36M220 213h17M106 214h16M159 214h36M220 214h17M106 215h16M159 215h36M220 215h13M106 216h16M159 216h36M220 216h10M106 217h16M159 217h36M220 217h7M106 218h16M159 218h36M220 218h4M106 219h16M159 219h36M106 220h16M159 220h36M106 221h16M159 221h36M106 222h16M159 222h36M106 223h16M159 223h36M106 224h16M159 224h36M106 225h16M159 225h36M106 226h16M159 226h36M106 227h16M159 227h36M106 228h16M159 228h36M106 229h16M159 229h36M106 230h16M159 230h36M106 231h16M159 231h36M106 232h16M159 232h36M106 233h16M159 233h36M106 234h16M159 234h36M106 235h16M159 235h36M106 236h16M159 236h36M106 237h16M159 237h36M106 238h16M159 238h36M106 239h16M159 239h36M106 240h16M159 240h36M106 241h16M159 241h35M106 242h16M159 242h31M106 243h16M159 243h28M106 244h16M159 244h24M106 245h16M159 245h21M106 246h16M159 246h18M106 247h16M159 247h14M106 248h16M159 248h11M106 249h13M159 249h8M106 250h10M159 250h5M106 251h6M159 251h1M106 252h3" />
    <path stroke="#47311e" d="M167 162h1M164 163h1M154 166h1" />
    <path stroke="#946248" d="M231 162h1M228 163h1M221 165h1" />
    <path stroke="#5b3e2b" d="M165 163h1" />
    <path stroke="#a8725f" d="M167 163h1" />
    <path stroke="#5b3f2b" d="M161 164h2M158 165h1" />
    <path stroke="#9c6a56" d="M163 164h1M160 165h1" />
    <path stroke="#a8735f" d="M164 164h1" />
    <path stroke="#7b5541" d="M159 165h1" />
    <path stroke="#f3ebe7" d="M218 165h1" />
    <path stroke="#e8d6cf" d="M219 165h1" />
    <path stroke="#5b3f2c" d="M155 166h1" />
    <path stroke="#9c6a57" d="M156 166h2" />
    <path stroke="#e7d6ce" d="M215 166h1M212 167h1M209 168h1" />
    <path stroke="#d4b5a7" d="M216 166h1M213 167h1" />
    <path stroke="#c29480" d="M217 166h1" />
    <path stroke="#ba8871" d="M218 166h1" />
    <path stroke="#234811" d="M151 167h1M147 168h2M144 169h1M140 170h1" />
    <path stroke="#166411" d="M152 167h1M145 169h1" />
    <path stroke="#0a8011" d="M153 167h1" />
    <path stroke="#5f7e3c" d="M154 167h1" />
    <path stroke="#c19480" d="M214 167h1" />
    <path stroke="#0a8111" d="M149 168h2" />
    <path stroke="#f3eae6" d="M208 168h1" />
    <path stroke="#c1947f" d="M210 168h2" />
    <path stroke="#2b3611" d="M143 169h1" />
    <path stroke="#098111" d="M146 169h1M142 170h1M138 171h2" />
    <path stroke="#e7d5cd" d="M205 169h2" />
    <path stroke="#c1937f" d="M207 169h1M204 170h1" />
    <path stroke="#ba8771" d="M208 169h1" />
    <path stroke="#166511" d="M141 170h1" />
    <path stroke="#058c11" d="M143 170h1" />
    <path stroke="#3c9330" d="M202 170h1" />
    <path stroke="#7e9357" d="M203 170h1" />
    <path stroke="#544737" d="M136 171h1" />
    <path stroke="#746a5d" d="M137 171h1M133 172h2" />
    <path stroke="#5b883c" d="M187 171h1M187 172h1M154 177h1M154 182h1" />
    <path stroke="#1e9420" d="M198 171h1" />
    <path stroke="#3c9230" d="M199 171h1" />
    <path stroke="#6b9048" d="M200 171h1" />
    <path stroke="#9b8d60" d="M201 171h1" />
    <path stroke="#dad8d4" d="M135 172h1" />
    <path stroke="#edebea" d="M136 172h1" />
    <path stroke="#1e9421" d="M195 172h1" />
    <path stroke="#3d9230" d="M196 172h1M193 173h1M189 174h1" />
    <path stroke="#9b8d61" d="M197 172h1M194 173h1" />
    <path stroke="#ac8c69" d="M198 172h1M195 173h1M192 174h1" />
    <path stroke="#756b5e" d="M130 173h1M127 174h1" />
    <path stroke="#a8a199" d="M131 173h1" />
    <path stroke="#dbd8d5" d="M132 173h1M129 174h1" />
    <path stroke="#1f9421" d="M192 173h1" />
    <path stroke="#a8a29a" d="M128 174h1" />
    <path stroke="#6d9049" d="M190 174h1" />
    <path stroke="#9c8d61" d="M191 174h1M188 175h1" />
    <path stroke="#b78069" d="M36 175h1" />
    <path stroke="#544838" d="M123 175h1" />
    <path stroke="#766c5f" d="M124 175h1" />
    <path stroke="#dbd9d5" d="M125 175h2" />
    <path stroke="#b87f69" d="M186 175h1M182 176h2M179 177h1M175 178h1M171 179h2M168 180h1M165 181h1M161 182h2M158 183h1M155 184h1" />
    <path stroke="#aa8665" d="M187 175h1" />
    <path stroke="#dcd9d6" d="M122 176h1" />
    <path stroke="#edecea" d="M123 176h1" />
    <path stroke="#bc866b" d="M184 176h1M180 177h2M177 178h1M173 179h1" />
    <path stroke="#bd876c" d="M185 176h1M178 178h1M174 179h1M167 181h1M164 182h1" />
    <path stroke="#be886c" d="M186 176h1M182 177h5M179 178h8M175 179h12M171 180h16M168 181h19M165 182h21M161 183h22M158 184h22M155 185h21M155 186h18M155 187h15M155 188h11M155 189h8M155 190h5M155 191h3M155 192h3M155 193h3M155 194h3M155 195h3M155 196h3M155 197h3M155 198h3M155 199h3M155 200h3M155 201h3" />
    <path stroke="#be8a6f" d="M187 176h1M187 177h1M187 178h1M187 179h1M187 180h1M187 181h1" />
    <path stroke="#ba836a" d="M176 178h1M169 180h1M159 183h1" />
    <path stroke="#b77d68" d="M167 180h1M164 181h1" />
    <path stroke="#bd866b" d="M170 180h1M166 181h1M163 182h1M160 183h1M156 184h2" />
    <path stroke="#b5836a" d="M193 180h1" />
    <path stroke="#ae7c62" d="M194 180h1M190 181h1" />
    <path stroke="#aa785e" d="M195 180h1" />
    <path stroke="#a37156" d="M191 181h1" />
    <path stroke="#97654b" d="M192 181h1M189 182h1" />
    <path stroke="#946247" d="M193 181h1" />
    <path stroke="#a7755b" d="M195 181h1M195 183h1M195 186h1M195 187h1M195 188h1M195 189h1" />
    <path stroke="#b68165" d="M186 182h1M176 185h1M166 188h1M163 189h1" />
    <path stroke="#ae7b60" d="M187 182h1" />
    <path stroke="#a27056" d="M188 182h1" />
    <path stroke="#a7745b" d="M195 182h1M195 184h1" />
    <path stroke="#ae7a5e" d="M183 183h2M180 184h1M177 185h1" />
    <path stroke="#97654a" d="M185 183h1" />
    <path stroke="#946146" d="M186 183h1M176 186h1" />
    <path stroke="#5c8b3d" d="M154 184h1" />
    <path stroke="#a36f54" d="M181 184h1" />
    <path stroke="#976549" d="M182 184h1M178 185h2" />
    <path stroke="#3f8f32" d="M151 185h2" />
    <path stroke="#9a8563" d="M153 185h1" />
    <path stroke="#ac8767" d="M154 185h1" />
    <path stroke="#a7745a" d="M195 185h1" />
    <path stroke="#3f8f33" d="M148 186h1" />
    <path stroke="#6d8a4b" d="M149 186h1M146 187h1" />
    <path stroke="#9b8563" d="M150 186h1M147 187h1M143 188h1" />
    <path stroke="#b78272" d="M151 186h3M148 187h6M145 188h9M142 189h12M138 190h16M138 191h16M138 192h16M138 193h16M138 194h16M138 195h16M138 196h16M138 197h16M138 198h16M138 199h16M138 200h16M138 201h16M138 202h16M138 203h13M138 204h10M138 205h6M138 206h3" />
    <path stroke="#bb856f" d="M154 186h1M154 187h1M154 188h1M154 189h1M154 190h1M154 191h1M154 192h1M154 193h1M154 194h1M154 195h1M154 196h1M154 197h1M154 198h1M154 199h1M154 201h1" />
    <path stroke="#ae795e" d="M173 186h2M170 187h1M167 188h1M164 189h1" />
    <path stroke="#976449" d="M175 186h1M172 187h1M169 188h1M165 189h1M162 190h1M159 191h1" />
    <path stroke="#209322" d="M144 187h1" />
    <path stroke="#408f33" d="M145 187h1M142 188h1" />
    <path stroke="#a26f53" d="M171 187h1M168 188h1" />
    <path stroke="#209222" d="M141 188h1" />
    <path stroke="#a9846b" d="M144 188h1" />
    <path stroke="#a4715d" d="M202 188h1" />
    <path stroke="#ac765f" d="M203 188h1" />
    <path stroke="#418f33" d="M138 189h1" />
    <path stroke="#6e8a4b" d="M139 189h1" />
    <path stroke="#9c8564" d="M140 189h1" />
    <path stroke="#a9836b" d="M141 189h1" />
    <path stroke="#936146" d="M166 189h1M163 190h1M120 195h1M110 198h1" />
    <path stroke="#b17e67" d="M198 189h1" />
    <path stroke="#a4715c" d="M199 189h1M196 190h1" />
    <path stroke="#935f4d" d="M200 189h1" />
    <path stroke="#814d3e" d="M201 189h1M197 190h1" />
    <path stroke="#774235" d="M202 189h1M199 190h4M196 191h7M196 192h7M196 193h7M196 194h7M196 195h7M196 196h7M196 197h7M196 198h7M196 199h7M196 200h7M196 201h7M196 202h7M155 203h3M196 203h7M151 204h7M196 204h7M148 205h10M196 205h7M145 206h13M196 206h6M142 207h16M196 207h2M138 208h20M138 209h20M138 210h20M138 211h20M138 212h20M138 213h20M138 214h20M138 215h20M138 216h20M138 217h20M138 218h20M138 219h20M138 220h16M138 221h13M138 222h10M138 223h6M138 224h3" />
    <path stroke="#955f4c" d="M203 189h1M203 190h1M203 191h1M203 192h1M203 193h1M203 194h1M203 195h1M203 196h1M203 197h1M203 198h1M203 199h1M203 200h1M203 201h1M203 202h1M203 203h1M203 204h1M203 205h1" />
    <path stroke="#f2e8e3" d="M134 190h1" />
    <path stroke="#e4d0c7" d="M135 190h1M131 191h1M128 192h1" />
    <path stroke="#be8e79" d="M136 190h2M133 191h1" />
    <path stroke="#ae795d" d="M160 190h2" />
    <path stroke="#9a6850" d="M195 190h1" />
    <path stroke="#7c4739" d="M198 190h1" />
    <path stroke="#d1afa0" d="M132 191h1" />
    <path stroke="#b8856d" d="M134 191h1" />
    <path stroke="#aa765a" d="M158 191h1" />
    <path stroke="#83503c" d="M195 191h1M195 195h1M195 197h1M158 203h1M158 208h1" />
    <path stroke="#f1e7e3" d="M127 192h1" />
    <path stroke="#be8e78" d="M129 192h2M126 193h1" />
    <path stroke="#a77358" d="M158 192h1M158 193h1M158 194h1M158 196h1M158 197h1M158 198h1M158 199h1M158 200h1" />
    <path stroke="#84503c" d="M195 192h1M195 193h1M195 194h1M195 196h1M195 198h1M195 199h1M195 200h1M195 201h1M158 202h1M195 202h1M195 203h1M158 204h1M195 204h1M158 205h1M195 205h1M158 206h1M195 206h1M158 207h1M195 207h1M158 209h1M158 210h1M158 211h1M158 212h1M158 213h1M158 214h1M158 215h1M158 216h1M158 217h1M158 218h1" />
    <path stroke="#e4cfc6" d="M124 193h1" />
    <path stroke="#d1af9f" d="M125 193h1" />
    <path stroke="#b8846d" d="M127 193h1" />
    <path stroke="#b58369" d="M120 194h1M110 197h1" />
    <path stroke="#ad7b61" d="M121 194h1M117 195h1M114 196h1" />
    <path stroke="#be8d78" d="M122 194h2" />
    <path stroke="#a16f55" d="M118 195h1M115 196h1" />
    <path stroke="#966449" d="M119 195h1M116 196h1M112 197h2M109 198h1M106 199h1" />
    <path stroke="#a77357" d="M158 195h1" />
    <path stroke="#ac7a61" d="M111 197h1M107 198h2" />
    <path stroke="rgba(189,139,113,0.8196078431372549)" d="M14 198h1" />
    <path stroke="rgba(188,139,114,0.6313725490196078)" d="M15 199h1" />
    <path stroke="#a56f58" d="M105 199h1" />
    <path stroke="rgba(191,135,112,0.12549019607843137)" d="M16 200h1" />
    <path stroke="rgba(188,139,115,0.8117647058823529)" d="M17 200h1M19 201h1M22 203h1M27 206h1" />
    <path stroke="#a36d55" d="M105 200h1M105 201h1M105 202h1M105 203h1M105 204h1M105 206h1M105 207h1M105 208h1M105 209h1M105 210h1M105 211h1M105 214h1M105 215h1M105 216h1M105 217h1M105 218h1M105 219h1M105 220h1M105 221h1M105 222h1M105 223h1M105 225h1M105 226h1M105 227h1M105 228h1M105 229h1M105 230h1M105 231h1M105 232h1M105 233h1M105 234h1M105 235h1M105 236h1M105 237h1M105 239h1M105 240h1M105 241h1M105 242h1M105 243h1M105 244h1M105 245h1M105 246h1M105 248h1M105 249h1M105 251h1M105 252h1" />
    <path stroke="#ba856f" d="M154 200h1" />
    <path stroke="rgba(189,138,114,0.3764705882352941)" d="M18 201h1" />
    <path stroke="#9a664d" d="M158 201h1" />
    <path stroke="rgba(189,140,114,0.6235294117647059)" d="M20 202h1" />
    <path stroke="#ad7865" d="M154 202h1" />
    <path stroke="#a36e57" d="M155 202h1" />
    <path stroke="#804b3c" d="M156 202h2" />
    <path stroke="rgba(190,138,114,0.3686274509803922)" d="M21 203h1M23 204h1M26 206h1" />
    <path stroke="#9f6a5b" d="M151 203h2M148 204h1M145 205h1" />
    <path stroke="#7f4a3c" d="M153 203h1M150 204h1M147 205h1" />
    <path stroke="#7b4639" d="M154 203h1M144 206h1M141 207h1" />
    <path stroke="#8f5a4c" d="M149 204h1" />
    <path stroke="rgba(187,136,111,0.11764705882352941)" d="M24 205h1" />
    <path stroke="rgba(188,140,114,0.615686274509804)" d="M25 205h1M30 208h1" />
    <path stroke="#a36c55" d="M105 205h1M105 213h1M105 224h1M105 247h1" />
    <path stroke="#ab7666" d="M144 205h1M141 206h1" />
    <path stroke="#8f5a4b" d="M146 205h1" />
    <path stroke="#9e695b" d="M142 206h1" />
    <path stroke="#7e493c" d="M143 206h1M140 207h1" />
    <path stroke="#8e5846" d="M202 206h1M199 207h1M196 208h1" />
    <path stroke="#a16954" d="M203 206h1" />
    <path stroke="rgba(188,139,114,0.3607843137254902)" d="M28 207h1M31 209h1" />
    <path stroke="#9e695a" d="M138 207h1" />
    <path stroke="#8e594b" d="M139 207h1" />
    <path stroke="#834d3e" d="M198 207h1" />
    <path stroke="#9d6652" d="M200 207h1" />
    <path stroke="#ac745d" d="M201 207h1" />
    <path stroke="rgba(191,137,118,0.10980392156862745)" d="M29 208h1M34 211h1" />
    <path stroke="#8f5b45" d="M195 208h1" />
    <path stroke="#ac755d" d="M197 208h1" />
    <path stroke="#b0785f" d="M198 208h1" />
    <path stroke="rgba(189,139,114,0.803921568627451)" d="M32 209h1M35 211h1" />
    <path stroke="#a26d52" d="M195 209h1M195 214h1M195 218h1M195 219h1M158 220h1M195 220h1M195 225h1M158 227h1M158 230h1M158 233h1M158 236h1M158 237h1" />
    <path stroke="rgba(189,138,114,0.6078431372549019)" d="M33 210h1" />
    <path stroke="#a26d53" d="M195 210h1M195 211h1M195 212h1M195 215h1M195 217h1M158 222h1M195 222h1M158 223h1M158 226h1M195 226h1M158 228h1M158 231h1M158 234h1M158 235h1" />
    <path stroke="rgba(181,125,105,0.35294117647058826)" d="M36 212h1" />
    <path stroke="#a26d55" d="M105 212h1M105 238h1M105 250h1" />
    <path stroke="#a26c53" d="M195 213h1M195 216h1M158 224h1M195 224h1" />
    <path stroke="rgba(144,95,67,0.803921568627451)" d="M233 215h1" />
    <path stroke="rgba(143,93,67,0.6)" d="M234 215h1M231 216h1M227 217h2" />
    <path stroke="rgba(145,93,67,0.34509803921568627)" d="M235 215h1M225 218h1" />
    <path stroke="rgba(147,98,69,0.10196078431372549)" d="M236 215h1" />
    <path stroke="rgba(144,94,67,0.796078431372549)" d="M230 216h1M220 219h1" />
    <path stroke="rgba(149,96,64,0.09411764705882353)" d="M232 216h1M229 217h1M226 218h1M222 219h2" />
    <path stroke="rgba(149,85,64,0.047058823529411764)" d="M233 216h1M230 217h1M220 220h1M192 242h2M189 243h1M186 244h1M182 245h1" />
    <path stroke="rgba(144,95,68,0.592156862745098)" d="M224 218h1M221 219h1" />
    <path stroke="#905c45" d="M158 219h1" />
    <path stroke="#834e3e" d="M154 220h1M144 223h1" />
    <path stroke="#905947" d="M155 220h1" />
    <path stroke="#9f6853" d="M156 220h1M149 222h1M146 223h1M139 225h1" />
    <path stroke="#ae765e" d="M157 220h1M153 221h1M150 222h1M147 223h1M143 224h1M140 225h1" />
    <path stroke="rgba(179,123,98,0.592156862745098)" d="M217 220h2M214 221h1" />
    <path stroke="rgba(181,128,96,0.09411764705882353)" d="M219 220h1" />
    <path stroke="#905948" d="M151 221h2" />
    <path stroke="#b07860" d="M154 221h1" />
    <path stroke="#a16d53" d="M158 221h1M195 221h1M195 223h1M158 225h1M158 229h1" />
    <path stroke="rgba(178,122,98,0.33725490196078434)" d="M215 221h1M212 222h1" />
    <path stroke="rgba(174,128,93,0.08627450980392157)" d="M216 221h1M213 222h1M209 223h1M206 224h1" />
    <path stroke="#905a48" d="M148 222h1M145 223h1M142 224h1M138 225h1" />
    <path stroke="rgba(178,123,98,0.796078431372549)" d="M210 222h1M207 223h1" />
    <path stroke="rgba(180,123,98,0.5843137254901961)" d="M211 222h1M208 223h1M204 224h1M201 225h1M197 226h1" />
    <path stroke="#844e3e" d="M141 224h1" />
    <path stroke="#b07960" d="M144 224h1" />
    <path stroke="rgba(179,124,97,0.32941176470588235)" d="M205 224h1M198 226h1" />
    <path stroke="#b17960" d="M141 225h1" />
    <path stroke="rgba(179,123,98,0.788235294117647)" d="M200 225h1" />
    <path stroke="rgba(180,123,102,0.5764705882352941)" d="M62 227h1" />
    <path stroke="rgba(147,97,69,0.5372549019607843)" d="M195 227h1" />
    <path stroke="rgba(144,93,67,0.49411764705882355)" d="M195 228h1M195 229h1M195 230h1M195 231h1M195 232h1M195 233h1M195 234h1M195 235h1M195 236h1M195 237h1M195 238h1M158 239h1M195 239h1M158 240h1M195 240h1M158 241h1M158 242h1M158 243h1M158 244h1M158 245h1M158 246h1M158 247h1M158 248h1M158 249h1M158 250h1M158 251h1" />
    <path stroke="#a16d52" d="M158 232h1" />
    <path stroke="rgba(179,123,97,0.7803921568627451)" d="M156 238h1M149 240h1" />
    <path stroke="rgba(178,123,98,0.5607843137254902)" d="M157 238h1" />
    <path stroke="rgba(158,104,78,0.7803921568627451)" d="M158 238h1" />
    <path stroke="rgba(179,123,98,0.5529411764705883)" d="M153 239h2M150 240h1M146 241h1M142 242h2M139 243h1" />
    <path stroke="rgba(182,128,91,0.054901960784313725)" d="M155 239h1M152 240h1M148 241h1" />
    <path stroke="rgba(180,124,98,0.3058823529411765)" d="M151 240h1" />
    <path stroke="rgba(178,124,97,0.2980392156862745)" d="M147 241h1M140 243h1" />
    <path stroke="rgba(145,94,67,0.5529411764705883)" d="M194 241h1M191 242h1M187 243h2" />
    <path stroke="rgba(146,95,66,0.27450980392156865)" d="M195 241h1M107 253h1" />
    <path stroke="rgba(170,128,106,0.047058823529411764)" d="M144 242h2M141 243h1M137 244h1M134 245h1" />
    <path stroke="rgba(144,94,67,0.7725490196078432)" d="M190 242h1M183 244h1M180 245h1M173 247h1M170 248h1" />
    <path stroke="rgba(179,123,98,0.7725490196078432)" d="M138 243h1M135 244h1M125 247h1M122 248h1" />
    <path stroke="rgba(128,85,85,0.023529411764705882)" d="M190 243h1M183 245h1M180 246h1" />
    <path stroke="rgba(180,123,97,0.5450980392156862)" d="M136 244h1M132 245h1M129 246h1M126 247h1" />
    <path stroke="rgba(143,94,68,0.5450980392156862)" d="M184 244h1M181 245h1M177 246h1M174 247h1" />
    <path stroke="rgba(144,94,67,0.2980392156862745)" d="M185 244h1" />
    <path stroke="rgba(179,124,96,0.2901960784313726)" d="M133 245h1M130 246h1M127 247h1" />
    <path stroke="rgba(145,93,65,0.2901960784313726)" d="M178 246h1M175 247h1" />
    <path stroke="rgba(153,102,77,0.0392156862745098)" d="M179 246h1M176 247h1M172 248h1M121 249h1M169 249h1" />
    <path stroke="rgba(179,123,99,0.5372549019607843)" d="M123 248h1" />
    <path stroke="rgba(143,95,67,0.5372549019607843)" d="M171 248h1M119 249h2M167 249h2M116 250h1M164 250h1M113 251h1M161 251h1" />
    <path stroke="rgba(128,64,64,0.01568627450980392)" d="M173 248h1M170 249h1M112 252h1M160 252h1M109 253h1M105 254h1" />
    <path stroke="rgba(145,96,67,0.2823529411764706)" d="M117 250h1M165 250h1M114 251h1M162 251h1" />
    <path stroke="rgba(159,96,64,0.03137254901960784)" d="M118 250h1M166 250h1M115 251h1M163 251h1M111 252h1M159 252h1M108 253h1" />
    <path stroke="rgba(144,94,67,0.7647058823529411)" d="M112 251h1M160 251h1M109 252h1" />
    <path stroke="rgba(144,94,66,0.5294117647058824)" d="M110 252h1M106 253h1" />
    <path stroke="rgba(143,94,67,0.26666666666666666)" d="M158 252h1" />
    <path stroke="rgba(157,105,78,0.7647058823529411)" d="M105 253h1" />
</svg>