<svg xmlns="http://www.w3.org/2000/svg" viewBox="0 -0.5 16 16" shape-rendering="crispEdges">
<metadata>Made with Pixels to Svg https://codepen.io/shshaw/pen/XbxvNj</metadata>
<path stroke="#bf2529" d="M7 1h2M6 2h1M9 3h1M2 4h2M11 4h2M4 5h1M1 6h1M13 6h1M6 7h2M5 8h1M8 8h1M3 13h2M2 15h1" />
<path stroke="#ed302c" d="M7 2h1M9 2h1M8 3h1M1 5h1M3 5h1M11 5h1M13 5h1M2 6h1M12 6h1M6 8h1M7 9h1M2 13h1M1 14h1M4 14h1M3 15h1" />
<path stroke="#9b221a" d="M8 2h1M2 5h1M12 5h1M3 7h1M11 7h1M7 8h1M2 14h2" />
<path stroke="#742303" d="M6 3h1M7 4h2M10 5h1M2 7h1M12 7h1M7 10h1M5 14h1" />
<path stroke="#ff4540" d="M7 3h1M3 6h1M11 6h1M6 9h1M4 15h1" />
<path stroke="#204626" d="M6 4h1M7 6h1M10 7h1M11 8h1M8 10h1M12 10h1M5 11h1M13 11h1M6 12h1M13 12h1M7 13h2" />
<path stroke="#2b702a" d="M6 5h1M3 8h1M10 8h1M8 9h1M4 10h1M11 10h1M12 11h1M8 12h1M14 12h1M12 13h1M10 14h1M10 15h1" />
<path stroke="#4a8f28" d="M6 6h1M3 9h1M11 9h1M8 11h1M7 14h1M11 14h1M7 15h1" />
<path stroke="#265a25" d="M8 6h1M2 9h1M5 10h1M9 11h1M7 12h1M6 15h1" />
<path stroke="#364c22" d="M6 14h1" />
<path stroke="#33411f" d="M8 15h1" />
</svg>