<svg xmlns="http://www.w3.org/2000/svg" viewBox="0 -0.5 16 16" shape-rendering="crispEdges">
<metadata>Made with Pixels to Svg https://codepen.io/shshaw/pen/XbxvNj</metadata>
<path stroke="#d380d3" d="M2 2h1M12 2h1M3 3h1M11 3h1M10 4h1M13 8h1M1 9h1M3 9h1M2 10h1M7 11h1M12 11h2M11 12h1M4 14h1M3 15h1" />
<path stroke="#de93f1" d="M3 2h1M10 3h1M3 4h1M12 8h1M2 9h1M11 9h1M7 12h1M12 12h1M4 15h1" />
<path stroke="#b66bb2" d="M11 2h1M2 3h1M4 3h1M12 3h1M4 4h1M9 4h1M11 4h1M5 5h1M10 5h1M11 8h1M12 9h1M3 10h1M8 12h1M13 12h1M7 13h1" />
<path stroke="#9e619f" d="M5 4h1M4 5h1M9 5h1M8 6h1M10 8h1M4 10h1M10 10h1M3 11h1M5 11h1M4 12h1M8 13h1M10 13h1M12 13h1M8 14h1M11 14h1" />
<path stroke="#529a2e" d="M5 6h1M6 8h1M7 10h1M9 15h1" />
<path stroke="#55ab2d" d="M6 6h1M7 8h1M7 9h1M6 12h1M8 15h1" />
<path stroke="#4a8f28" d="M9 6h1M6 7h1M8 7h1M9 9h1M8 11h1M5 12h1" />
<path stroke="#177c04" d="M7 7h1M10 9h1M8 10h1M4 11h1M11 13h1M10 14h1" />
</svg>