<svg xmlns="http://www.w3.org/2000/svg" viewBox="0 -0.5 16 16" shape-rendering="crispEdges">
<metadata>Made with Pixels to Svg https://codepen.io/shshaw/pen/XbxvNj</metadata>
<path stroke="#f6e2ff" d="M6 3h1M7 4h1" />
<path stroke="#ebc5fd" d="M8 3h1M6 4h1M8 4h1M7 5h1" />
<path stroke="#e4aff4" d="M6 5h1M8 5h1M7 6h1" />
<path stroke="#4a8f28" d="M5 7h1M9 8h1M7 9h1M8 10h1M5 12h1M7 12h1M6 14h1" />
<path stroke="#177c04" d="M7 7h1M7 8h1M9 9h1M7 10h1M9 10h1M7 11h1M9 11h1M9 12h1M8 13h1M8 14h1M7 15h1" />
<path stroke="#55ab2d" d="M5 8h1M5 9h2M5 10h2M6 11h1M8 11h1M8 12h1M7 13h1M7 14h1" />
<path stroke="#529a2e" d="M6 8h1M5 11h1M6 12h1M6 13h1" />
</svg>