<svg xmlns="http://www.w3.org/2000/svg" viewBox="0 -0.5 16 16" shape-rendering="crispEdges">
<metadata>Made with Pixels to Svg https://codepen.io/shshaw/pen/XbxvNj</metadata>
<path stroke="#e4aff4" d="M10 4h1M9 5h1M11 5h1M2 6h1M4 6h1M3 7h1M12 7h2M2 8h1M5 8h1M7 12h1M4 13h2M8 13h1M13 13h1M4 14h1M5 15h1" />
<path stroke="#ebc5fd" d="M3 5h3M10 5h1M5 6h2M10 6h1M13 6h1M2 7h1M11 7h1M3 8h2M6 12h1M7 13h1M12 13h1M5 14h2M12 14h2" />
<path stroke="#e3a1f7" d="M3 6h1M12 6h1M4 7h1M6 13h1" />
<path stroke="#265a25" d="M8 6h1M9 8h1M8 9h1M13 9h1M4 10h2M7 10h1M10 10h1M1 11h1M9 11h1M3 12h1M13 12h1M11 13h1" />
<path stroke="#de93f1" d="M9 6h1M6 7h1M10 7h1M6 8h1M11 8h2M3 9h2M8 14h1M6 15h2" />
<path stroke="#f6e2ff" d="M11 6h1M5 7h1M7 14h1" />
<path stroke="#204626" d="M7 7h1M9 7h1M7 8h1M6 9h1M10 9h1M8 10h1M12 10h1M5 11h1M7 11h1M2 12h1M10 12h1M9 13h1M10 14h1M9 15h1M11 15h1" />
<path stroke="#266325" d="M8 7h1M8 8h1M7 9h1M12 9h1M11 10h1M2 11h2M4 12h1M11 12h2M10 13h1" />
<path stroke="#1a381f" d="M10 8h1M5 9h1M9 9h1M6 10h1M9 10h1M4 11h1M6 11h1M8 11h1M10 11h2M5 12h1M8 12h2M9 14h1M11 14h1M8 15h1M10 15h1" />
</svg>